<svg width="23" height="25" viewBox="0 0 23 25" fill="none" xmlns="http://www.w3.org/2000/svg">
<path d="M10.5935 11.1505C10.943 10.8065 10.943 10.2473 10.5935 9.90323C10.2441 9.55914 9.67616 9.55914 9.32668 9.90323L4.58689 14.5699C3.77873 15.3656 3.34188 16.3979 3.34188 17.5161C3.34188 18.6344 3.77873 19.6667 4.58689 20.4624C6.24691 22.0968 8.93352 22.0968 10.5717 20.4624L21.2745 9.92473C22.3884 8.82796 23 7.36559 23 5.8172C23 4.26882 22.3884 2.80645 21.2745 1.70968C18.9592 -0.569893 15.2241 -0.569893 12.9088 1.70968L2.22792 12.2258C0.786325 13.6452 0 15.5161 0 17.5161C0 19.5161 0.786325 21.4086 2.22792 22.8065C3.66952 24.2258 5.5698 25 7.60114 25C9.63248 25 11.5546 24.2258 12.9744 22.8065L17.7141 18.1398C18.0636 17.7957 18.0636 17.2366 17.7141 16.8925C17.3647 16.5484 16.7968 16.5484 16.4473 16.8925L11.7075 21.5591C10.6154 22.6344 9.15195 23.2366 7.60114 23.2366C6.05033 23.2366 4.58689 22.6344 3.49478 21.5591C2.40266 20.4839 1.79107 19.043 1.79107 17.5161C1.79107 15.9892 2.40266 14.5484 3.49478 13.4731L14.1757 2.95699C14.962 2.1828 15.9886 1.77419 17.0807 1.77419C18.1728 1.77419 19.2213 2.2043 19.9858 2.95699C20.7721 3.73118 21.1871 4.74194 21.1871 5.8172C21.1871 6.89247 20.7502 7.92473 19.9858 8.67742L9.283 19.2151C8.34378 20.1398 6.79297 20.1398 5.83191 19.2151C5.37322 18.7634 5.11111 18.1613 5.11111 17.5161C5.11111 16.871 5.37322 16.2688 5.83191 15.8172L10.5935 11.1505Z" fill="white"/>
</svg>
