<svg width="23" height="24" viewBox="0 0 23 24" fill="none" xmlns="http://www.w3.org/2000/svg">
<path d="M22.4139 8.67096V5.40192V5.04384C22.4139 3.17057 20.7607 1.64444 18.7064 1.59172V1.59215V2.42149V2.42227V3.25603V3.25768V3.73136C18.7064 4.94718 17.7173 5.93622 16.5018 5.93622C15.2861 5.93622 14.2971 4.94718 14.2971 3.73136V3.24656V2.41645V1.58633H8.04562V2.41645V3.24656V3.73136C8.04562 4.94718 7.05658 5.93622 5.84085 5.93622C4.62521 5.93622 3.63624 4.94718 3.63624 3.73136V3.2648V3.26193V2.42548V2.4247V1.59545V1.59459C1.61593 1.68013 0 3.19228 0 5.0434V5.40149V8.67053V20.1845C0 22.2879 1.71173 24 3.81524 24H18.5985C20.7018 24 22.4136 22.2879 22.4136 20.1845V8.67096H22.4139ZM20.7536 20.1849C20.7536 21.3734 19.7869 22.3398 18.5985 22.3398H3.81567C2.62739 22.3398 1.66075 21.3734 1.66075 20.1849V8.67096H20.7536V20.1849Z" fill="#D5B584"/>
<path d="M4.88168 0.959607V1.58623V2.41635V3.24646V3.73126C4.88168 4.26139 5.31116 4.69086 5.84129 4.69086C6.37125 4.69086 6.8009 4.26139 6.8009 3.73126V3.24646V2.41635V1.58623V0.959607C6.80098 0.429474 6.37134 0 5.84138 0C5.31116 0.000434251 4.88168 0.429908 4.88168 0.959607Z" fill="#D5B584"/>
<path d="M16.502 0.000427246C15.9719 0.000427246 15.5423 0.429901 15.5423 0.960035V1.58666V2.41677V3.24689V3.73168C15.5423 4.26182 15.9718 4.69129 16.502 4.69129C17.0323 4.69129 17.4619 4.26182 17.4619 3.73168V3.24645V2.41634V1.58622V0.9596C17.4611 0.429901 17.0319 0.000427246 16.502 0.000427246Z" fill="#D5B584"/>
<path d="M8.42959 20.138C9.512 20.138 10.3294 19.8356 10.8821 19.2308C11.4337 18.6261 11.7102 17.9248 11.7102 17.1271C11.7102 16.3683 11.474 15.77 11.0012 15.3323C10.8729 15.2147 10.7568 15.1206 10.653 15.051C10.463 14.9229 10.4488 14.8313 10.6277 14.6927C10.7282 14.6145 10.8269 14.5201 10.9236 14.4089C11.2531 14.0274 11.4178 13.5593 11.4178 13.004C11.4178 12.2201 11.1424 11.5944 10.59 11.1283C10.0375 10.6622 9.31112 10.4293 8.41048 10.4293C7.92569 10.4293 7.51627 10.4879 7.18268 10.6048C6.84926 10.722 6.5617 10.8908 6.31896 11.1121C5.99422 11.4243 5.75617 11.7646 5.60418 12.1334C5.5043 12.4277 5.43491 12.7345 5.39661 13.0526C5.36925 13.2804 5.55025 13.4661 5.77927 13.4661H6.67869C6.90798 13.4661 7.08463 13.2789 7.11789 13.0518C7.15828 12.7762 7.2486 12.5435 7.38852 12.3543C7.594 12.077 7.91526 11.938 8.35195 11.938C8.73261 11.938 9.02721 12.0506 9.23721 12.2761C9.44634 12.5015 9.55152 12.7941 9.55152 13.154C9.55152 13.7094 9.34603 14.0778 8.93584 14.2598C8.75754 14.3408 8.4764 14.3939 8.09374 14.4194C7.86515 14.434 7.67912 14.6212 7.67912 14.8499V15.3464C7.67912 15.5755 7.86559 15.7595 8.09461 15.772C8.50011 15.7935 8.81147 15.8482 9.02773 15.9369C9.52911 16.1453 9.77985 16.5596 9.77985 17.1789C9.77985 17.6475 9.64445 18.0058 9.37435 18.2555C9.10424 18.5047 8.78698 18.6292 8.42386 18.6292C7.83128 18.6292 7.4223 18.4018 7.19771 17.9466C7.12432 17.7963 7.07325 17.6224 7.04424 17.4246C7.01098 17.1976 6.83042 17.0102 6.60079 17.0102H5.61009C5.38089 17.0102 5.20033 17.1959 5.2256 17.4237C5.28761 17.9863 5.42909 18.4553 5.64934 18.8302C6.16862 19.7022 7.09566 20.138 8.42959 20.138Z" fill="#D5B584"/>
<path d="M13.5878 13.4012H14.9753C15.2043 13.4012 15.3903 13.5869 15.3903 13.8163V19.4887C15.3903 19.7177 15.5764 19.9037 15.8053 19.9037H16.8743C17.1033 19.9037 17.2892 19.7176 17.2892 19.4887V10.8901C17.2892 10.661 17.1032 10.475 16.8743 10.475H16.1564C15.9274 10.475 15.7385 10.5613 15.7166 10.665C15.7048 10.7197 15.6895 10.7822 15.6696 10.8518C15.5878 11.1336 15.4661 11.359 15.3064 11.528C15.0729 11.7748 14.7701 11.9396 14.3984 12.0222C14.225 12.0612 13.9542 12.0924 13.5869 12.1171C13.3583 12.1317 13.1726 12.3254 13.1726 12.554V12.9853C13.1726 13.2152 13.3591 13.4012 13.5878 13.4012Z" fill="#D5B584"/>
</svg>
