<svg width="32" height="32" viewBox="0 0 32 32" fill="none" xmlns="http://www.w3.org/2000/svg">
<path d="M29.5 28.25C29.5 28.9404 28.9404 29.5 28.25 29.5H27V30.75C27 31.4404 26.4404 32 25.75 32C25.0596 32 24.5 31.4404 24.5 30.75V29.5H23.25C22.5596 29.5 22 28.9404 22 28.25C22 27.5596 22.5596 27 23.25 27H24.5V25.75C24.5 25.0596 25.0596 24.5 25.75 24.5C26.4404 24.5 27 25.0596 27 25.75V27H28.25C28.9404 27 29.5 27.5596 29.5 28.25ZM29.5 8.75V20.75C29.5 21.4404 28.9404 22 28.25 22C27.5596 22 27 21.4404 27 20.75V10H24.5V13.75C24.5 14.4404 23.9404 15 23.25 15C22.5596 15 22 14.4404 22 13.75V10H10V13.75C10 14.4404 9.44037 15 8.75 15C8.05963 15 7.5 14.4404 7.5 13.75V10H5V29.5H18.25C18.9404 29.5 19.5 30.0596 19.5 30.75C19.5 31.4404 18.9404 32 18.25 32H3.75C3.05963 32 2.5 31.4404 2.5 30.75V8.75C2.5 8.05962 3.05963 7.5 3.75 7.5H7.55912C8.05569 3.28269 11.6514 0 16 0C20.3486 0 23.9443 3.28269 24.4409 7.5H28.25C28.9404 7.5 29.5 8.05962 29.5 8.75ZM21.9162 7.5C21.4387 4.66594 18.9677 2.5 16 2.5C13.0323 2.5 10.5613 4.66594 10.0838 7.5H21.9162Z" fill="#D5B584"/>
</svg>
