<svg width="34" height="36" viewBox="0 0 34 36" fill="none" xmlns="http://www.w3.org/2000/svg">
<path d="M25.9549 4.22213C25.3192 4.22213 24.6928 4.29666 24.0829 4.44431C22.7631 1.74923 20.0117 0 16.9492 0C13.8866 0 11.1353 1.74923 9.81542 4.44431C9.2056 4.29666 8.57918 4.22213 7.94341 4.22213C3.56344 4.22213 0 7.78549 0 12.1655C0 16.1881 3.0053 19.5219 6.88873 20.0392V29.6686H12.8926V19.0542H15.0019V29.6685H18.8964V19.0542H21.0058V29.6685H27.0096V20.0391C30.893 19.5218 33.8984 16.188 33.8984 12.1655C33.8984 7.78556 30.335 4.22213 25.9549 4.22213Z" fill="#D5B584"/>
<path d="M27.0093 31.7777H6.88867V36H27.0093V31.7777Z" fill="#D5B584"/>
</svg>
