<svg width="46" height="36" viewBox="0 0 46 36" fill="none" xmlns="http://www.w3.org/2000/svg">
<path d="M38.6776 34.9092C38.6776 35.5116 38.1894 36 37.5869 36H35.8353H32.1993H5.75407C3.69904 36 2.02732 34.3281 2.02732 32.2733V28.182C2.02732 26.1272 3.69904 24.4552 5.75407 24.4552H32.1993H35.8353H37.5869C38.1894 24.4552 38.6776 24.9437 38.6776 25.546C38.6776 26.1483 38.1894 26.6368 37.5869 26.6368H36.9261V33.8184H37.5869C38.1894 33.8184 38.6776 34.3069 38.6776 34.9092ZM43.3494 21.9501C43.3494 22.5525 42.8612 23.0409 42.2587 23.0409H40.6181H36.8711H14.9319C13.0208 23.0409 11.4662 21.4863 11.4662 19.5755V16.6638C11.4662 14.753 13.0208 13.1984 14.9319 13.1984H36.8709H40.6179H42.2584C42.861 13.1984 43.3492 13.6868 43.3492 14.2892C43.3492 14.8915 42.861 15.38 42.2584 15.38H41.7087V20.8594H42.2584C42.8612 20.8594 43.3494 21.3476 43.3494 21.9501ZM14.9319 20.8594H36.8709H39.5271V15.3797H36.8709H14.9319C14.2239 15.3797 13.6478 15.9557 13.6478 16.6636V19.5753C13.648 20.2834 14.2239 20.8594 14.9319 20.8594ZM44.6416 0H35.2982H10.4344H1.09078C0.488232 0 0 0.48845 0 1.09078C0 1.6931 0.488232 2.18155 1.09078 2.18155H2.02732V11.5094C1.52796 11.8561 1.19964 12.4329 1.19964 13.0856C1.19964 14.1434 2.06026 15.0041 3.11809 15.0041C4.17593 15.0041 5.03655 14.1434 5.03655 13.0856C5.03655 12.4329 4.70823 11.8563 4.20887 11.5094V2.18155H9.34359V10.7815C9.34359 11.3838 9.83183 11.8722 10.4344 11.8722H35.2982C35.9007 11.8722 36.389 11.3838 36.389 10.7815V2.18155H44.6416C45.2441 2.18155 45.7323 1.6931 45.7323 1.09078C45.7323 0.48845 45.2441 0 44.6416 0Z" fill="#D5B584"/>
</svg>
