<svg width="24" height="24" viewBox="0 0 24 24" fill="none" xmlns="http://www.w3.org/2000/svg">
<path d="M23.6982 1.80761C23.1211 2.77111 22.3762 3.62365 21.4986 4.32494L20.9427 4.76934L20.3862 4.32494C19.5086 3.62365 18.7635 2.77111 18.1862 1.80761C18.0126 1.51904 18.0126 1.15832 18.1862 0.869744C18.5651 0.238396 19.3841 0.033501 20.0156 0.412346V0.412529L20.7134 0.831109C20.8541 0.91552 21.03 0.91552 21.1707 0.831109L21.8685 0.412529C22.5004 0.0349659 23.3187 0.239678 23.6982 0.870293C23.8718 1.1585 23.8718 1.51922 23.6982 1.80761Z" fill="#D5B584"/>
<path d="M19.3995 8.57776C19.4476 8.70044 19.4885 8.82404 19.533 8.948L20.5333 7.95026C20.0689 7.95282 19.532 7.95557 19.0737 7.95593C19.2048 8.15057 19.3141 8.35913 19.3995 8.57776Z" fill="#D5B584"/>
<path d="M17.1471 7.52124C15.1791 6.77637 12.9573 7.49286 11.7955 9.24756L11.6179 9.51416C11.4816 9.71851 11.2057 9.7738 11.0015 9.63757C10.9144 9.57953 10.8506 9.49274 10.8214 9.3924L10.7249 9.06354C10.2883 7.56464 8.99927 6.47095 7.44928 6.28436L3.22229 5.77148L3.15564 6.33252C3.05127 7.19531 3.66614 7.97937 4.52893 8.08392L5.5307 8.20532C5.77423 8.23499 5.94781 8.45636 5.91815 8.70007L5.79547 9.70221C5.6911 10.565 6.3056 11.3491 7.1684 11.4538L8.13519 11.5712C8.37872 11.6008 8.55212 11.8224 8.52246 12.0661C8.50323 12.2238 8.40125 12.3593 8.25513 12.4213C6.70166 13.0816 4.96564 13.175 3.35028 12.6854L0.0280151 11.6746C0.00933839 11.9169 0 12.1556 0 12.388C0.000366211 17.697 4.30444 22.0007 9.61359 22.0003C9.81427 22.0001 10.0148 21.9939 10.2151 21.9813C15.1208 21.6403 18.9919 17.6765 19.2169 12.7639C19.2708 11.4459 19.051 10.1309 18.5715 8.90186C18.3142 8.26025 17.7964 7.75836 17.1471 7.52124ZM16.689 9.44897C16.6674 9.50299 16.634 9.5517 16.5912 9.59106C16.5504 9.63263 16.5022 9.66577 16.4489 9.68884C16.2821 9.75366 16.093 9.71558 15.9644 9.59106C15.923 9.55042 15.8899 9.50208 15.8666 9.44897C15.8456 9.39349 15.835 9.33472 15.8355 9.27557C15.834 9.24719 15.8372 9.21863 15.8445 9.19116C15.8492 9.16241 15.8566 9.13403 15.8666 9.10657C15.8787 9.08002 15.8937 9.05475 15.9111 9.03113C15.9238 9.00531 15.9419 8.98242 15.9644 8.96448C15.9855 8.94397 16.0078 8.92456 16.0311 8.90662C16.0552 8.8916 16.0805 8.87823 16.1067 8.8667C16.1378 8.85333 16.1644 8.84894 16.1911 8.83997C16.2777 8.82184 16.3678 8.83118 16.4489 8.8667C16.5029 8.88812 16.5516 8.92163 16.591 8.96448C16.6758 9.04578 16.7239 9.15802 16.7245 9.27557C16.7234 9.33508 16.7113 9.39386 16.689 9.44897Z" fill="#D5B584"/>
<path d="M19.3898 20.4445H20.2787V21.3333H19.3898V20.4445Z" fill="#D5B584"/>
<path d="M18.0564 21.7778H18.9454V22.6666H18.0564V21.7778Z" fill="#D5B584"/>
<path d="M19.3898 23.1112H20.2787V24H19.3898V23.1112Z" fill="#D5B584"/>
<path d="M20.7231 21.7778H21.6119V22.6666H20.7231V21.7778Z" fill="#D5B584"/>
<path d="M10.6666 0H11.5556V0.888794H10.6666V0Z" fill="#D5B584"/>
<path d="M9.33325 1.33337H10.2222V2.22217H9.33325V1.33337Z" fill="#D5B584"/>
<path d="M10.6666 2.66675H11.5556V3.55554H10.6666V2.66675Z" fill="#D5B584"/>
<path d="M12 1.33337H12.8888V2.22217H12V1.33337Z" fill="#D5B584"/>
</svg>
