<svg width="14" height="24" viewBox="0 0 14 24" fill="none" xmlns="http://www.w3.org/2000/svg">
<path d="M12.8023 0.861571L9.68596 0.856934C6.18482 0.856934 3.92223 3.00962 3.92223 6.34148V8.87022H0.788848C0.518087 8.87022 0.298828 9.07378 0.298828 9.32487V12.9887C0.298828 13.2398 0.518337 13.4431 0.788848 13.4431H3.92223V22.6882C3.92223 22.9393 4.14149 23.1426 4.41225 23.1426H8.50041C8.77118 23.1426 8.99043 22.9391 8.99043 22.6882V13.4431H12.6541C12.9248 13.4431 13.1441 13.2398 13.1441 12.9887L13.1456 9.32487C13.1456 9.20431 13.0939 9.08885 13.0021 9.00353C12.9103 8.91821 12.7853 8.87022 12.6553 8.87022H8.99043V6.72657C8.99043 5.69625 9.25519 5.17321 10.7025 5.17321L12.8018 5.17251C13.0724 5.17251 13.2916 4.96895 13.2916 4.71809V1.31599C13.2916 1.06536 13.0726 0.862034 12.8023 0.861571Z" fill="#D5B584"/>
</svg>
