<svg width="27" height="26" viewBox="0 0 27 26" fill="none" xmlns="http://www.w3.org/2000/svg">
<path d="M8.44303 0H18.1876C22.6718 0 26.3081 3.63838 26.3081 8.125V17.875C26.3081 22.3616 22.6718 26 18.1876 26H8.44303C3.9589 26 0.322542 22.3616 0.322542 17.875V8.125C0.322542 3.63838 3.9589 0 8.44303 0ZM2.75869 17.875C2.75869 21.0112 5.30852 23.5625 8.44303 23.5625H18.1876C21.3221 23.5625 23.872 21.0112 23.872 17.875V8.125C23.872 4.98875 21.3221 2.4375 18.1876 2.4375H8.44303C5.30852 2.4375 2.75869 4.98875 2.75869 8.125V17.875Z" fill="#D5B584"/>
<path d="M13.3154 6.5C16.903 6.5 19.8118 9.41037 19.8118 13C19.8118 16.5896 16.903 19.5 13.3154 19.5C9.72775 19.5 6.81899 16.5896 6.81899 13C6.81899 9.41037 9.72775 6.5 13.3154 6.5ZM13.3154 17.0625C15.5534 17.0625 17.3756 15.2393 17.3756 13C17.3756 10.7591 15.5534 8.9375 13.3154 8.9375C11.0774 8.9375 9.25513 10.7591 9.25513 13C9.25513 15.2393 11.0774 17.0625 13.3154 17.0625Z" fill="#D5B584"/>
<path d="M6.33114 6.87873C5.85279 6.87873 5.46502 6.49096 5.46502 6.01261C5.46502 5.53426 5.85279 5.14648 6.33114 5.14648C6.80949 5.14648 7.19727 5.53426 7.19727 6.01261C7.19727 6.49096 6.80949 6.87873 6.33114 6.87873Z" fill="#D5B584"/>
</svg>
