<svg width="21" height="24" viewBox="0 0 21 24" fill="none" xmlns="http://www.w3.org/2000/svg">
<path d="M9.93861 8.94938C10.3965 8.94938 10.7677 8.57818 10.7677 8.12029C10.7677 7.6624 10.3965 7.2912 9.93861 7.2912C9.48072 7.2912 9.10952 7.6624 9.10952 8.12029C9.10952 8.57818 9.48072 8.94938 9.93861 8.94938Z" fill="#D5B584"/>
<path d="M16.3388 18.9903C15.9397 18.7761 16.0011 18.3899 16.0011 18.1478V14.765C17.1685 14.5266 19.7378 14.5047 19.7378 12.1971C19.7378 11.0568 18.8075 10.6392 17.673 10.7546C16.7683 10.8465 16.3428 11.4503 14.8102 10.8739C14.6159 10.8008 14.0739 10.3227 14.3842 9.94445C15.1776 8.97727 15.6251 7.71636 15.6251 6.35856C15.6251 6.1366 15.6232 5.69188 15.8223 5.60883C16.8429 5.18279 17.5332 4.12556 17.5332 2.93038C17.5332 1.31204 16.2445 0 14.6551 0C13.7934 0 13.0203 0.385852 12.4928 0.996884C12.4466 1.05044 12.3641 1.16159 12.1619 1.0743C11.446 0.7375 10.8469 0.637643 10.0063 0.637643C9.1036 0.637643 8.44755 0.759406 7.69163 1.14459C7.45308 1.21756 7.291 0.97182 7.17307 0.852543C6.65288 0.325777 5.93642 0 5.14482 0C3.55532 0 2.26659 1.31198 2.26659 2.93038C2.26659 4.1728 3.02613 5.23453 4.09821 5.66077C4.20183 5.70196 4.36197 5.82628 4.38757 6.35856C4.45228 7.70474 4.84559 8.94495 5.61145 9.92261C5.89549 10.2851 5.6218 10.753 5.19435 10.8851C3.63515 11.3671 3.24137 10.8475 2.33997 10.7545C1.2056 10.6375 0.275176 11.0567 0.275176 12.197C0.275176 14.4425 2.84369 14.5225 4.01166 14.7575V18.1477C4.01166 18.3965 4.04647 18.7449 3.52777 19.0654C2.07918 19.6624 0 19.7085 0 21.7357C0 22.9693 1.02309 24.2071 2.23353 23.9692C3.74993 23.6714 4.54589 23.168 6.84675 22.1267C7.34227 21.9009 7.6919 22.0141 7.90949 22.0446C8.56219 22.1363 9.26877 22.1718 10.0063 22.1718C10.8303 22.1718 11.6156 22.1275 12.3301 22.0101C12.5105 21.9804 12.9322 21.9634 13.3194 22.1208C15.5648 23.166 16.2854 23.6685 17.7794 23.9692C18.9886 24.2126 20.0129 22.9693 20.0129 21.7357C20.013 19.7086 17.7847 19.595 16.3388 18.9903ZM12.7258 8.94945C12.7258 10.1571 11.478 11.1363 9.93854 11.1363C8.3993 11.1363 7.15129 10.1571 7.15129 8.94945C7.15129 7.74163 8.39923 6.76255 9.93854 6.76255C11.478 6.76255 12.7258 7.74163 12.7258 8.94945ZM5.92768 5.34266C5.92768 4.79311 6.373 4.34765 6.92262 4.34765C7.4721 4.34765 7.91769 4.79311 7.91769 5.34266C7.91769 5.8922 7.4721 6.33766 6.92262 6.33766C6.373 6.33759 5.92768 5.89213 5.92768 5.34266ZM13.3736 17.6517C13.3736 19.5113 11.866 20.3464 10.0065 20.3464C8.1469 20.3464 6.63944 19.5113 6.63944 17.6517V16.0684C6.63944 14.2088 8.14697 12.7014 10.0065 12.7014C11.8661 12.7014 13.3736 14.2089 13.3736 16.0684V17.6517ZM12.6023 6.33759C12.0528 6.33759 11.6073 5.89213 11.6073 5.34259C11.6073 4.79304 12.0528 4.34759 12.6023 4.34759C13.1519 4.34759 13.5973 4.79304 13.5973 5.34259C13.5973 5.89213 13.1519 6.33759 12.6023 6.33759Z" fill="#D5B584"/>
</svg>
