<svg width="155" height="176" viewBox="0 0 155 176" fill="none" xmlns="http://www.w3.org/2000/svg">
<path fill-rule="evenodd" clip-rule="evenodd" d="M77.442 30.5301C103.488 30.5301 124.627 51.7453 124.627 77.8846C124.627 104.024 103.488 125.239 77.442 125.239C51.3963 125.239 30.257 104.024 30.257 77.8846C30.257 51.7453 51.3963 30.5301 77.442 30.5301ZM21.5925 132.363C21.9057 132.835 23.315 133.411 24.1501 133.725C22.8452 132.468 21.5403 131.159 20.3398 129.797C20.6008 130.739 21.0183 131.63 21.5925 132.363ZM31.9273 135.402C33.9629 135.664 35.9985 135.925 38.0342 136.292C19.4003 123.615 7.13426 102.191 7.13426 77.8846C7.13426 38.9638 38.6083 7.3766 77.3898 7.3766C116.171 7.3766 147.645 38.9638 147.645 77.8846C147.645 102.191 135.379 123.615 116.745 136.292C118.938 135.925 121.182 135.664 123.374 135.349L123.74 135.297H123.792H123.74C140.338 121.73 150.986 101.09 150.986 77.937C150.986 37.1304 117.998 4.02406 77.3376 4.02406C36.6771 4.02406 3.79373 37.078 3.79373 77.8846C3.79373 101.09 14.4417 121.73 31.0921 135.297C31.3009 135.297 31.4575 135.349 31.9273 135.402ZM43.2537 137.392C44.2455 137.654 45.185 137.968 46.1245 138.335H46.1767C47.4816 138.545 48.7343 138.387 49.9348 137.916C52.2836 137.026 54.1627 135.402 55.572 132.94C56.7203 130.897 57.3466 129.063 57.3988 127.335C57.451 125.606 57.0856 124.087 56.3549 122.725C55.6242 121.363 54.528 120.263 52.9622 119.372C50.5612 117.958 48.2124 117.696 45.8113 118.534C43.4625 119.372 41.5313 121.101 39.9654 123.772C38.4517 126.339 37.9298 128.854 38.3995 131.316C38.8171 133.725 40.2264 135.664 42.6274 137.025C42.8362 137.183 43.045 137.287 43.2537 137.392ZM48.3689 142.107C48.3167 142.264 48.2124 142.421 48.1602 142.578C48.7865 142.683 49.4129 142.788 50.0392 142.892C49.5172 142.578 48.9431 142.316 48.3689 142.107ZM58.5471 145.774C58.5471 145.931 58.5993 146.088 58.5471 146.297C58.6515 146.926 58.1818 148.288 57.9208 149.126C58.2861 149.231 58.7037 149.336 59.0691 149.44C64.4974 149.964 68.3077 150.121 73.9971 150.226C75.2498 150.226 76.5547 150.279 77.8596 150.279C84.0187 150.331 88.3509 150.331 94.0925 149.859C94.8232 149.702 95.5539 149.493 96.2847 149.336C96.2325 148.131 96.2325 147.135 96.2325 146.193C96.2325 146.088 96.2325 145.931 96.2325 145.826C90.23 147.502 83.9143 148.393 77.3898 148.393C70.9175 148.393 64.5496 147.502 58.5471 145.774ZM104.897 142.788C105.576 142.683 106.202 142.631 106.88 142.526C106.776 142.369 106.672 142.211 106.567 142.054C106.045 142.316 105.471 142.526 104.897 142.788ZM106.515 140.064C106.88 139.068 107.872 138.126 109.647 137.654C110.43 137.445 111.213 137.287 111.996 137.078L113.04 136.502C113.405 136.292 113.614 136.135 113.614 136.03C113.614 135.925 113.561 135.611 113.457 135.087L112.726 132.311C112.674 132.101 112.622 131.997 112.57 131.892C112.413 131.578 111.996 131.63 111.369 131.997C110.9 132.259 110.586 132.468 110.482 132.73C110.325 132.94 110.325 133.306 110.325 133.83C110.378 135.035 110.378 135.768 110.273 136.083C110.169 136.397 109.856 136.659 109.334 136.973L108.498 137.445L104.532 129.954L105.784 129.273C105.993 129.168 106.202 129.116 106.358 129.116C106.515 129.116 106.776 129.325 107.089 129.639C107.455 130.006 107.663 130.163 107.872 130.216C108.029 130.216 108.29 130.163 108.655 129.954C109.229 129.639 109.542 129.43 109.595 129.325C109.647 129.22 109.647 129.011 109.542 128.801L107.611 125.187C107.455 124.873 107.298 124.715 107.141 124.715C106.985 124.715 106.515 124.977 105.68 125.396C105.523 125.501 105.419 125.606 105.367 125.763C105.315 125.92 105.419 126.287 105.523 126.863C105.576 127.177 105.576 127.439 105.523 127.596C105.419 127.754 105.262 127.911 104.949 128.068L103.853 128.644L100.565 122.411L101.661 121.834C101.974 121.677 102.287 121.677 102.653 121.782C103.018 121.887 103.54 122.201 104.218 122.672C104.584 122.934 104.897 123.039 105.158 123.039C105.419 123.039 105.784 122.882 106.358 122.568C106.88 122.306 107.089 122.044 106.985 121.887C106.985 121.834 106.88 121.73 106.776 121.625L104.479 119.268C104.323 119.11 104.114 119.006 104.01 119.006C103.853 119.006 103.644 119.058 103.383 119.215L93.2051 124.663C92.892 124.82 92.7354 124.977 92.6832 125.03C92.631 125.134 92.6832 125.292 92.8398 125.606C92.9963 125.92 93.1529 126.13 93.2573 126.182C93.3617 126.235 93.5705 126.235 93.9881 126.13C94.51 126.025 94.8232 126.025 94.9276 126.182L102.131 139.749C102.287 140.064 102.131 140.43 101.609 140.902C101.295 141.216 101.191 141.53 101.348 141.74C101.556 142.159 101.713 142.369 101.87 142.421C101.974 142.473 102.183 142.421 102.444 142.264L106.515 140.064ZM130.838 133.621C132.039 133.149 133.031 132.573 133.5 131.892C134.283 130.792 135.014 129.849 135.484 128.749C134.022 130.425 132.456 132.049 130.838 133.621ZM135.693 128.068V128.12L135.745 128.33C147.384 114.763 154.431 97.1617 154.431 77.8323C154.483 35.1922 119.982 0.514374 77.442 0.514374C34.9024 0.514374 0.401001 35.1922 0.401001 77.8846C0.401001 97.3713 7.60402 115.182 19.4525 128.801L17.991 132.311C16.1119 136.764 16.7905 140.902 19.2959 144.621C19.1393 144.673 18.9827 144.726 18.8261 144.778C17.5734 145.197 16.1641 145.459 14.8592 145.354C14.3895 145.302 13.3978 145.145 12.9802 144.778C11.9363 143.783 10.9967 142.002 10.8924 139.697C10.3182 141.426 9.79624 143.102 9.22209 144.831C9.0655 145.354 8.96111 145.931 9.0655 146.507C9.32648 149.021 11.8319 150.645 13.8675 151.693C15.851 152.741 18.0432 153.579 20.1832 154.312C19.6613 156.355 20.1832 158.293 22.3754 159.655C25.194 161.384 28.2736 162.484 31.3531 163.584C31.2487 166.255 32.3448 168.665 35.1634 169.66C48.7865 174.48 63.3491 176.051 77.703 175.999C91.4305 175.946 105.054 174.637 118.155 170.237C119.721 169.713 121.234 168.979 122.278 167.67C123.218 166.465 123.426 165.051 123.27 163.636C125.932 162.589 128.542 161.593 131.151 160.441C133.97 159.184 134.857 156.879 134.335 154.312C136.736 153.422 139.294 152.426 141.538 151.169C143.417 150.121 145.714 148.497 145.818 146.088C145.871 145.459 145.714 144.883 145.505 144.307L143.783 140.326C143.47 141.845 143 143.259 141.956 144.254C140.912 145.25 138.25 144.935 137.258 144.673C136.684 144.516 136.058 144.359 135.484 144.15C137.885 140.588 138.459 136.764 137.05 132.259L135.745 128.173L135.693 128.068ZM44.5065 162.117C44.0367 162.798 43.5669 163.322 43.0972 163.584C42.5752 163.898 42.0532 164.003 41.4269 163.846C40.5918 163.636 39.9654 163.112 39.5479 162.17C39.3391 161.698 39.2869 161.227 39.2869 160.703C39.2869 160.179 39.3913 159.655 39.6 159.079C39.8088 158.45 40.0698 157.926 40.3308 157.403C40.5918 156.879 40.9571 156.46 41.3225 156.041C42.0532 155.203 42.7318 154.836 43.5147 154.993C43.6713 155.045 43.7757 155.045 43.8801 155.098C43.9845 155.15 44.1411 155.255 44.2455 155.307C44.4021 155.412 44.4543 155.464 44.5065 155.464C44.6108 155.517 44.663 155.569 44.7674 155.569C44.8718 155.569 44.924 155.569 45.0284 155.569C45.1328 155.517 45.2372 155.517 45.3938 155.412C45.3938 155.412 45.446 155.36 45.4982 155.36C45.6026 156.25 45.6026 157.141 45.5504 157.979C45.3938 158.031 45.2894 158.031 45.1328 158.084C45.0806 157.403 44.9762 156.826 44.7152 156.355C44.4021 155.779 44.0367 155.464 43.6191 155.36C43.0972 155.255 42.6274 155.622 42.2098 156.355C41.8445 156.931 41.5313 157.665 41.2703 158.555C41.0615 159.184 40.9571 159.76 40.9049 160.284C40.8527 160.808 40.9049 161.279 41.0093 161.646C41.2181 162.327 41.6357 162.746 42.1576 162.851C42.5752 162.955 42.9406 162.851 43.306 162.589C43.6191 162.379 43.9323 162.065 44.3499 161.593C44.3499 161.96 44.4021 162.012 44.5065 162.117ZM52.3358 165.627C51.2919 165.47 50.248 165.313 49.1519 165.155C49.1519 165.051 49.2041 164.893 49.2041 164.789C49.5173 164.841 49.7782 164.789 49.8826 164.684C50.0392 164.527 50.1436 164.265 50.1958 163.846C50.3524 162.798 50.6134 161.803 50.8221 160.755C51.0309 159.708 51.2919 158.712 51.4485 157.665C50.8743 158.869 50.3002 160.074 49.6738 161.331C49.0475 162.536 48.4733 163.741 48.0036 164.946C47.8992 164.946 47.7948 164.893 47.6904 164.893C47.5338 163.636 47.4294 162.327 47.4294 161.069C47.4294 159.812 47.4294 158.503 47.3772 157.245C47.2206 158.031 47.0119 158.817 46.8031 159.603C46.5943 160.388 46.3855 161.174 46.1767 161.96C45.9679 162.903 45.9157 163.479 45.9679 163.741C46.0201 164.003 46.2289 164.16 46.6465 164.317C46.6465 164.422 46.5943 164.579 46.5943 164.684C45.8635 164.527 45.1328 164.422 44.4021 164.265C44.4021 164.16 44.4543 164.003 44.4543 163.898C44.8718 163.898 45.1328 163.741 45.2894 163.531C45.446 163.322 45.5504 162.746 45.8113 161.855C45.9679 161.122 46.1767 160.388 46.3855 159.603C46.5943 158.869 46.8031 158.136 46.9597 157.35C47.064 156.931 47.0118 156.669 46.9075 156.46C46.8031 156.303 46.5943 156.198 46.3333 156.145C46.3333 156.041 46.3333 155.884 46.3333 155.779C47.1162 155.936 47.9514 156.041 48.7343 156.198C48.8909 157.141 48.8909 158.084 48.9431 158.974C48.9431 159.917 48.9953 160.86 48.9953 161.75C49.4129 160.912 49.8826 160.022 50.3002 159.184C50.7178 158.346 51.0831 157.455 51.3963 156.617C52.1792 156.722 52.9622 156.879 53.7973 156.984C53.7973 157.088 53.7973 157.245 53.7973 157.35C53.4841 157.298 53.2753 157.35 53.1188 157.455C53.0144 157.56 52.91 157.874 52.8578 158.293C52.7012 159.236 52.4924 160.179 52.2836 161.122C52.0748 162.065 51.8661 163.008 51.7095 163.951C51.6573 164.37 51.6573 164.632 51.7617 164.841C51.8661 164.998 52.0748 165.103 52.388 165.155C52.388 165.365 52.388 165.522 52.3358 165.627ZM59.1213 166.465C58.0774 166.36 57.0334 166.255 55.9895 166.098C55.9895 165.994 55.9895 165.836 56.0417 165.732C56.3027 165.784 56.5115 165.732 56.6159 165.679C56.7203 165.627 56.7725 165.47 56.7725 165.313C56.7725 165.208 56.7725 165.103 56.7725 164.998C56.7725 164.893 56.7725 164.789 56.7203 164.579C56.6681 164.108 56.6159 163.636 56.6159 163.165C55.8329 163.06 55.1022 162.955 54.3715 162.903C54.2671 163.165 54.1627 163.374 54.0583 163.636C54.0061 163.793 53.9017 163.951 53.8495 164.16C53.7973 164.317 53.7451 164.474 53.7451 164.632C53.6929 164.893 53.7451 165.155 53.9017 165.313C54.0583 165.47 54.2149 165.574 54.4237 165.627C54.4237 165.732 54.4237 165.889 54.3715 165.994C53.5885 165.889 52.8056 165.784 52.0226 165.679C52.0226 165.574 52.0226 165.417 52.0748 165.313C52.4924 165.208 52.7534 165.051 53.0144 164.736C53.171 164.527 53.3797 164.16 53.5885 163.636C54.0583 162.641 54.5802 161.646 54.9978 160.65C55.4676 159.655 55.8851 158.66 56.2505 157.665C56.6681 157.507 57.0856 157.403 57.5032 157.245C57.712 158.45 57.8164 159.655 57.8686 160.912C57.9208 162.117 58.0252 163.322 58.1296 164.527C58.1818 165.103 58.2339 165.47 58.3383 165.627C58.4949 165.941 58.7559 166.098 59.0691 166.151C59.1213 166.203 59.1213 166.36 59.1213 166.465ZM56.5637 162.589C56.5115 161.96 56.5115 161.279 56.4593 160.65C56.4071 160.022 56.3549 159.341 56.3549 158.712C56.0939 159.341 55.8329 159.917 55.5198 160.546C55.2588 161.174 54.9456 161.75 54.6324 162.379C55.311 162.431 55.9373 162.484 56.5637 162.589ZM66.1155 167.041C65.0194 166.989 63.9233 166.884 62.8272 166.832C62.8272 166.674 62.8272 166.57 62.8272 166.413C63.0882 166.413 63.2447 166.413 63.3491 166.308C63.4535 166.255 63.4535 166.151 63.5057 165.994C63.5057 165.941 63.5057 165.889 63.5057 165.784C63.5057 165.732 63.4535 165.574 63.4013 165.417C63.2447 164.893 63.036 164.37 62.8794 163.846C62.7228 163.322 62.5662 162.798 62.4096 162.274C62.1486 162.589 61.8877 162.903 61.5745 163.217C61.4701 163.846 61.4179 164.527 61.3657 165.155C61.3135 165.574 61.3657 165.836 61.4701 166.046C61.5745 166.203 61.7833 166.308 62.1486 166.36C62.1486 166.517 62.1486 166.622 62.1486 166.779C61.0525 166.675 60.0086 166.57 58.9125 166.465C58.9125 166.308 58.9125 166.203 58.9125 166.098C59.2257 166.151 59.4866 166.098 59.591 165.941C59.7476 165.784 59.7998 165.522 59.852 165.103C59.9564 164.16 60.0608 163.165 60.2174 162.222C60.374 161.279 60.5306 160.336 60.635 159.341C60.6871 158.922 60.635 158.66 60.5306 158.45C60.4262 158.293 60.2174 158.188 59.9042 158.136C59.9042 157.979 59.9042 157.874 59.9042 157.717C60.8959 157.822 61.9398 157.926 62.9316 157.979C62.9316 158.084 62.9316 158.241 62.9316 158.398C62.6184 158.398 62.4096 158.45 62.253 158.607C62.1486 158.765 62.0442 159.027 61.992 159.446C61.9398 159.917 61.8877 160.441 61.7833 160.912C61.7311 161.384 61.6267 161.908 61.5745 162.379C62.253 161.646 62.8794 160.86 63.5579 160.127C63.8189 159.812 64.0277 159.603 64.1321 159.393C64.2365 159.236 64.2887 159.027 64.2887 158.922C64.2887 158.712 64.1843 158.555 63.9755 158.503C63.8189 158.45 63.7145 158.45 63.6623 158.45C63.6623 158.346 63.6623 158.188 63.6623 158.031C64.5496 158.084 65.437 158.136 66.2721 158.188C66.2721 158.346 66.2721 158.45 66.2721 158.607C65.8545 158.66 65.5414 158.817 65.3326 158.974C65.0716 159.131 64.8106 159.393 64.4453 159.865C64.1321 160.231 63.8189 160.65 63.4535 161.017C63.6623 161.75 63.8711 162.431 64.1321 163.165C64.3409 163.898 64.6018 164.579 64.8628 165.313C65.0194 165.784 65.176 166.046 65.2804 166.203C65.437 166.413 65.6979 166.57 66.0633 166.674C66.1155 166.779 66.1155 166.884 66.1155 167.041ZM74.7278 165.155C74.4146 165.941 73.9971 166.517 73.5795 166.884C73.1097 167.303 72.5878 167.513 71.9092 167.513C71.0219 167.46 70.2912 167.041 69.717 166.151C69.456 165.732 69.2473 165.26 69.1429 164.736C69.0385 164.212 68.9863 163.689 69.0385 163.112C69.0907 162.484 69.1951 161.855 69.4038 161.279C69.5604 160.703 69.8214 160.231 70.1346 159.76C70.7609 158.765 71.4917 158.293 72.3268 158.293C72.4834 158.293 72.5878 158.293 72.6922 158.346C72.7966 158.398 72.9532 158.45 73.1097 158.503C73.2663 158.555 73.3707 158.607 73.3707 158.607C73.4751 158.66 73.5273 158.66 73.6317 158.66C73.7361 158.66 73.8405 158.66 73.8927 158.607C73.9971 158.555 74.1015 158.503 74.2581 158.398C74.3102 158.398 74.3102 158.346 74.3624 158.346C74.519 159.236 74.6756 160.127 74.8322 161.017C74.7278 161.069 74.5712 161.122 74.4146 161.174C74.2059 160.493 73.9449 159.969 73.6839 159.55C73.3185 159.027 72.901 158.765 72.4312 158.765C71.857 158.765 71.4395 159.184 71.0741 160.074C70.8131 160.703 70.6565 161.489 70.6044 162.431C70.5522 163.112 70.6043 163.689 70.6565 164.212C70.7609 164.736 70.8653 165.208 71.0741 165.574C71.4395 166.203 71.9092 166.57 72.4834 166.57C72.901 166.57 73.2663 166.413 73.6317 166.046C73.8927 165.784 74.1537 165.365 74.4668 164.841C74.5712 164.998 74.6234 165.051 74.7278 165.155ZM81.3567 164.946C81.4089 165.679 81.2001 166.255 80.7825 166.674C80.365 167.094 79.7386 167.303 78.9035 167.303C77.5986 167.303 76.3459 167.303 75.041 167.303C75.041 167.146 75.041 167.041 75.041 166.884C75.3542 166.884 75.5629 166.832 75.7195 166.674C75.8239 166.517 75.9283 166.255 75.9283 165.784C75.9283 164.841 75.9283 163.846 75.9283 162.903C75.9283 161.96 75.9805 160.965 75.9805 160.022C75.9805 159.603 75.9283 159.341 75.8239 159.131C75.7195 158.974 75.5107 158.869 75.1976 158.869C75.1976 158.712 75.1976 158.607 75.1976 158.45C76.2415 158.45 77.2854 158.45 78.3293 158.45C79.321 158.45 80.0518 158.607 80.4694 159.027C80.7825 159.341 80.9913 159.812 80.9913 160.441C80.9913 161.017 80.8347 161.489 80.4694 161.855C80.1562 162.17 79.7908 162.379 79.321 162.536C79.9474 162.693 80.365 162.955 80.6781 163.217C81.1479 163.636 81.3567 164.212 81.3567 164.946ZM79.4776 160.598C79.4776 160.022 79.3732 159.55 79.1645 159.341C78.9557 159.079 78.5903 158.974 78.1727 158.974C78.0162 158.974 77.8596 158.974 77.8074 159.027C77.703 159.079 77.6508 159.131 77.5986 159.184C77.5464 159.288 77.4942 159.341 77.4942 159.446C77.4942 159.55 77.4942 159.655 77.4942 159.812C77.4942 160.65 77.442 161.489 77.442 162.379C77.5986 162.379 77.7552 162.379 77.9118 162.379C78.4859 162.379 78.8513 162.222 79.1123 161.96C79.3732 161.698 79.4776 161.174 79.4776 160.598ZM79.7908 164.789C79.7908 164.16 79.6864 163.741 79.4254 163.427C79.1123 163.06 78.5903 162.903 77.8596 162.903C77.703 162.903 77.4942 162.903 77.3376 162.903C77.3376 163.741 77.3376 164.579 77.3376 165.47C77.3376 166.098 77.3898 166.465 77.442 166.622C77.5464 166.884 77.8596 166.989 78.2771 166.989C78.7469 166.989 79.1123 166.832 79.3732 166.465C79.6864 166.098 79.843 165.522 79.7908 164.789ZM88.2987 162.484C88.3509 163.112 88.3509 163.741 88.2465 164.265C88.1421 164.841 87.9855 165.313 87.7246 165.784C87.2026 166.779 86.4197 167.303 85.3758 167.355C84.384 167.408 83.6011 167.041 82.9226 166.203C82.6094 165.784 82.3484 165.313 82.1918 164.789C82.0352 164.265 81.9308 163.636 81.9308 162.955C81.9308 162.274 81.9308 161.698 82.0874 161.122C82.1918 160.546 82.4528 160.074 82.7138 159.603C83.2879 158.66 84.0187 158.188 84.9582 158.136C85.8977 158.084 86.6807 158.45 87.2548 159.236C87.568 159.655 87.7768 160.127 87.9855 160.65C88.1421 161.174 88.2465 161.803 88.2987 162.484ZM86.785 162.641C86.7329 161.908 86.6285 161.279 86.5241 160.755C86.4197 160.231 86.2631 159.76 86.1065 159.446C85.8455 158.869 85.428 158.555 84.9582 158.607C84.4362 158.607 84.0709 158.974 83.8099 159.603C83.6533 159.969 83.5489 160.388 83.4967 160.912C83.4445 161.436 83.4445 162.065 83.4445 162.798C83.4967 163.532 83.5489 164.16 83.6533 164.684C83.7577 165.208 83.9143 165.679 84.0709 165.994C84.384 166.622 84.8016 166.936 85.3236 166.884C85.8455 166.884 86.2109 166.622 86.4719 166.098C86.6807 165.679 86.785 165.155 86.8372 164.422C86.8894 163.951 86.8372 163.374 86.785 162.641ZM93.7793 164.003C93.6749 163.374 93.4661 162.903 93.2051 162.641C92.892 162.327 92.37 162.222 91.6915 162.327C91.5349 162.327 91.3783 162.379 91.1695 162.379C91.2739 163.217 91.3783 164.055 91.4305 164.893C91.4827 165.522 91.5871 165.889 91.6393 165.994C91.7958 166.203 92.0568 166.308 92.4744 166.308C92.9442 166.255 93.2573 166.046 93.5183 165.679C93.7793 165.26 93.8837 164.684 93.7793 164.003ZM88.6119 158.136C90.3344 158.031 92.0046 157.874 93.7271 157.717C93.9359 158.45 94.1447 159.184 94.4056 159.917C94.3012 159.969 94.249 160.022 94.1447 160.074C93.7793 159.55 93.4139 159.131 92.9441 158.817C92.4744 158.45 92.0046 158.346 91.5349 158.346C91.2217 158.398 90.9607 158.503 90.9085 158.712C90.8563 158.869 90.8041 159.184 90.8563 159.655C90.9085 160.336 90.9607 161.069 91.0651 161.75C91.3261 161.75 91.6393 161.698 91.9002 161.698C92.9441 161.593 93.6749 161.698 94.1447 161.96C94.7188 162.327 95.1364 163.008 95.293 164.055C95.3973 164.789 95.2408 165.365 94.8232 165.836C94.4056 166.308 93.8315 166.57 93.0485 166.674C91.7958 166.779 90.491 166.884 89.2383 166.989C89.2383 166.884 89.2382 166.727 89.1861 166.57C89.4992 166.57 89.708 166.465 89.8646 166.308C89.969 166.151 90.0212 165.836 89.969 165.417C89.8646 164.474 89.7602 163.479 89.6558 162.536C89.5514 161.593 89.447 160.598 89.3948 159.655C89.3948 159.236 89.2904 158.974 89.1861 158.817C89.0817 158.66 88.8729 158.607 88.5075 158.607C88.6119 158.398 88.6119 158.241 88.6119 158.136ZM101.922 161.069C102.026 161.698 102.078 162.274 102.078 162.851C102.026 163.427 101.922 163.898 101.713 164.422C101.295 165.47 100.513 166.046 99.5208 166.151C98.5291 166.255 97.7462 165.941 97.0154 165.208C96.65 164.841 96.3891 164.37 96.1281 163.846C95.9193 163.322 95.7627 162.746 95.6583 162.065C95.5539 161.384 95.5539 160.808 95.6061 160.231C95.6583 159.655 95.8149 159.131 96.0759 158.66C96.5457 157.665 97.3286 157.141 98.2159 157.036C99.1554 156.931 99.8862 157.245 100.513 157.979C100.826 158.346 101.087 158.817 101.348 159.341C101.609 159.812 101.765 160.388 101.922 161.069ZM100.46 161.331C100.304 160.598 100.147 159.969 100.043 159.446C99.8862 158.922 99.7296 158.503 99.5208 158.188C99.2076 157.612 98.8423 157.35 98.3203 157.403C97.7984 157.455 97.433 157.822 97.2242 158.503C97.1198 158.869 97.0154 159.288 97.0154 159.865C97.0154 160.388 97.0676 161.017 97.172 161.698C97.2764 162.431 97.433 163.008 97.5896 163.531C97.7462 164.055 97.9028 164.474 98.1115 164.789C98.4769 165.365 98.8945 165.627 99.4164 165.574C99.9384 165.522 100.252 165.208 100.46 164.736C100.617 164.317 100.669 163.793 100.669 163.06C100.669 162.641 100.565 162.065 100.46 161.331ZM110.273 166.151C110.169 166.203 110.064 166.255 109.96 166.308C109.647 165.836 109.334 165.47 108.916 165.155C108.446 164.789 108.029 164.632 107.611 164.684C106.828 164.841 105.993 164.946 105.21 165.103C104.845 165.155 104.479 165.47 104.166 165.941C103.905 166.308 103.696 166.832 103.488 167.46C103.383 167.46 103.227 167.408 103.122 167.408C103.175 166.622 103.227 165.836 103.279 164.998C103.957 164.893 104.323 164.527 104.427 163.846C104.479 163.479 104.427 162.903 104.271 162.117C104.114 161.436 103.957 160.755 103.801 160.074C103.644 159.393 103.54 158.712 103.436 158.031C103.383 157.612 103.279 157.35 103.175 157.193C103.018 157.036 102.809 157.036 102.444 157.088C102.444 156.984 102.444 156.826 102.444 156.722C104.218 156.46 105.993 156.198 107.716 155.884C107.716 155.988 107.716 156.145 107.716 156.25C107.402 156.303 107.194 156.407 107.141 156.565C107.037 156.722 106.985 157.036 107.089 157.455C107.246 158.241 107.402 158.974 107.559 159.708C107.768 160.493 107.924 161.227 108.133 161.96C108.394 162.955 108.551 163.531 108.759 163.793C108.916 164.003 109.125 164.055 109.49 163.951C109.751 164.684 110.012 165.417 110.273 166.151ZM106.724 162.222C106.567 161.436 106.358 160.703 106.202 159.917C106.045 159.131 105.889 158.398 105.732 157.612C105.628 157.088 105.576 156.826 105.523 156.722C105.471 156.617 105.21 156.617 104.793 156.722C104.74 156.722 104.636 156.722 104.584 156.774C104.323 156.826 104.166 156.879 104.062 156.931C103.853 157.036 103.801 157.403 103.853 157.926C103.957 158.607 104.062 159.288 104.218 159.969C104.375 160.65 104.532 161.331 104.688 162.012C104.845 162.746 104.897 163.322 104.897 163.741C104.845 164.16 104.74 164.474 104.584 164.684C105.158 164.579 105.732 164.527 106.306 164.422C106.724 164.37 106.985 164.212 106.985 164.055C107.089 163.846 106.985 163.217 106.724 162.222ZM116.641 162.851C115.597 163.06 114.605 163.27 113.561 163.531C113.561 163.427 113.509 163.27 113.509 163.165C113.822 163.112 114.031 162.955 114.083 162.798C114.188 162.641 114.188 162.327 114.083 161.908C113.875 161.174 113.666 160.389 113.405 159.655C113.196 158.922 112.935 158.136 112.726 157.403C112.57 158.241 112.413 159.079 112.257 159.865C112.1 160.703 111.943 161.541 111.735 162.379C111.839 162.798 111.943 163.06 112.1 163.217C112.257 163.322 112.465 163.374 112.779 163.322C112.779 163.427 112.831 163.584 112.883 163.689C111.891 163.898 110.847 164.108 109.803 164.317C109.803 164.212 109.751 164.055 109.751 163.951C110.064 163.898 110.273 163.793 110.325 163.584C110.43 163.427 110.43 163.112 110.325 162.693C110.117 161.75 109.856 160.808 109.595 159.917C109.334 158.974 109.125 158.031 108.916 157.141C108.864 156.722 108.759 156.46 108.603 156.355C108.446 156.198 108.238 156.198 107.977 156.25C107.977 156.145 107.977 155.988 107.977 155.884C108.968 155.726 109.908 155.569 110.9 155.36C110.9 155.464 110.9 155.622 110.9 155.726C110.586 155.779 110.43 155.884 110.325 156.093C110.221 156.25 110.169 156.565 110.273 156.984C110.43 157.769 110.586 158.503 110.847 159.288C111.056 160.074 111.265 160.808 111.474 161.593C111.63 160.755 111.787 159.917 111.943 159.079C112.1 158.241 112.257 157.455 112.465 156.617C112.361 156.198 112.309 155.936 112.152 155.779C111.996 155.622 111.787 155.622 111.526 155.674C111.526 155.569 111.526 155.412 111.526 155.307C112.465 155.098 113.457 154.941 114.397 154.731C114.397 154.836 114.397 154.993 114.397 155.098C114.083 155.15 113.927 155.255 113.822 155.412C113.718 155.569 113.718 155.884 113.77 156.25C113.979 157.193 114.24 158.084 114.501 158.974C114.762 159.917 115.075 160.808 115.336 161.698C115.441 162.117 115.545 162.379 115.702 162.484C115.858 162.589 116.067 162.641 116.432 162.589C116.589 162.641 116.641 162.746 116.641 162.851ZM124.784 141.059C120.765 142.421 116.641 143.364 112.57 144.097C108.498 144.831 104.375 145.302 100.304 145.774C99.8862 145.826 99.5208 145.878 99.2598 145.931C99.5208 145.983 99.834 145.983 100.252 145.931C102.809 145.826 105.367 145.774 107.924 145.721C110.482 145.669 113.04 145.616 115.597 145.669C116.484 145.669 117.163 145.983 117.581 146.402C117.789 146.612 117.894 146.821 117.946 147.083C117.998 147.188 117.998 147.293 117.998 147.45C118.207 150.226 118.468 152.898 118.99 155.412C119.46 157.769 120.19 159.969 121.182 161.855C122.122 161.489 123.009 161.122 123.948 160.755C126.036 159.917 128.124 159.131 130.212 158.188H130.264C131.204 157.769 131.778 157.141 131.987 156.355C132.195 155.517 132.039 154.522 131.517 153.317V153.264C131.36 152.95 131.204 152.636 130.995 152.321C129.011 148.759 127.08 145.197 126.506 140.273C126.088 140.588 125.514 140.849 124.784 141.059ZM117.111 148.55C117.006 148.602 116.85 148.655 116.745 148.707C111.735 150.121 105.889 151.117 99.5208 151.798C92.7354 152.479 85.428 152.793 77.9118 152.741C70.9697 152.688 63.9755 152.426 57.3988 151.85C50.77 151.274 44.5065 150.383 39.0781 149.021C38.6083 148.917 38.1386 148.707 37.7732 148.497C37.5644 150.959 37.0947 153.212 36.5205 155.412C35.8419 157.926 34.9546 160.231 33.9107 162.431C33.6497 163.741 33.7019 164.789 34.0673 165.627C34.4327 166.465 35.059 167.041 35.9463 167.355C42.1054 169.556 48.6299 171.075 55.572 172.122C62.514 173.118 69.8736 173.589 77.6508 173.589C84.384 173.589 91.1173 173.222 97.7462 172.384C104.375 171.546 110.952 170.132 117.372 167.984C118.572 167.565 119.668 167.094 120.295 166.308C120.921 165.522 121.078 164.422 120.504 162.746C119.355 160.65 118.572 158.293 118.05 155.674C117.581 153.369 117.267 151.012 117.111 148.55ZM117.006 147.397V147.293C117.006 147.24 116.954 147.188 116.902 147.083C116.693 146.821 116.223 146.664 115.649 146.664C113.092 146.664 110.534 146.716 107.977 146.716C105.419 146.769 102.861 146.821 100.304 146.926C99.312 146.978 98.5813 146.821 98.1637 146.664C97.9027 146.507 97.7462 146.35 97.694 146.088C97.6418 145.826 97.7462 145.564 98.0593 145.407C98.3725 145.197 99.0511 144.935 100.199 144.831C104.218 144.359 108.342 143.888 112.413 143.154C116.484 142.421 120.504 141.53 124.47 140.169C125.462 139.854 126.036 139.54 126.245 139.33C126.193 139.33 126.141 139.278 126.088 139.278C125.462 139.068 124.314 139.016 123.74 139.173C121.495 139.749 119.251 140.273 116.954 140.797C114.658 141.321 112.361 141.792 110.012 142.159C109.177 142.316 108.551 142.107 108.185 141.792C107.977 141.635 107.872 141.373 107.82 141.164C107.768 140.902 107.82 140.64 107.924 140.43C108.185 139.907 108.864 139.435 110.012 139.121C113.718 138.178 117.32 137.654 120.765 137.183C121.704 137.078 122.591 136.921 123.635 136.764C126.976 136.292 129.481 135.664 131.36 134.983C133.135 134.302 134.231 133.516 134.753 132.625L135.275 131.682L135.588 132.73C136.319 134.93 136.475 137.025 136.058 139.121C135.64 141.007 134.701 142.892 133.135 144.778L133.292 144.831C134.857 145.564 137.05 146.297 138.981 146.507C140.808 146.664 142.478 146.35 143.157 144.988C143.157 144.935 143.209 144.935 143.209 144.883L143.678 143.888L144.096 144.883C144.879 146.716 143.417 148.34 140.808 149.807C138.563 151.064 135.432 152.269 132.456 153.369C132.926 154.574 133.031 155.674 132.77 156.617C132.456 157.665 131.726 158.503 130.473 159.079H130.421C128.333 159.969 126.245 160.808 124.157 161.646C123.218 162.012 122.33 162.379 121.443 162.693C122.017 164.527 121.704 165.836 120.973 166.779C120.19 167.775 118.938 168.351 117.581 168.822C111.056 170.97 104.479 172.384 97.7984 173.275C91.1173 174.165 84.384 174.48 77.5986 174.48C69.7692 174.48 62.3574 174.061 55.3632 173.013C48.3689 172.018 41.7401 170.394 35.5288 168.194C34.3805 167.775 33.5453 166.989 33.0756 165.941C32.7102 164.998 32.6058 163.846 32.8146 162.536C32.5014 162.431 32.0839 162.274 31.7185 162.117C28.6911 161.069 25.716 159.969 23.054 158.346C22.271 157.874 21.6447 157.193 21.4359 156.303C21.2793 155.517 21.3837 154.574 22.0101 153.369C18.9305 152.269 15.9553 151.169 13.8153 149.912C11.3621 148.55 10.005 146.978 10.5792 145.145L10.9967 143.888L11.5187 145.145C11.5709 145.25 11.6231 145.302 11.6753 145.407C12.1973 146.297 13.5021 146.716 15.0158 146.769C16.6339 146.821 18.5651 146.402 20.2876 145.721C20.7052 145.564 21.1749 145.354 21.5403 145.145C20.0788 143.364 19.0871 141.53 18.6173 139.592C18.1476 137.445 18.3042 135.192 19.2959 132.835L19.7656 131.63L20.1832 132.835C20.4442 133.621 21.6969 134.354 23.5237 135.035C25.6638 135.821 28.5345 136.397 31.7185 136.816C34.3283 137.13 36.8859 137.497 39.2347 137.968C41.5835 138.44 43.7235 138.964 45.5504 139.697C46.3333 140.011 46.8031 140.378 46.9597 140.797C47.064 141.059 47.064 141.321 47.0119 141.53C46.9597 141.74 46.8031 141.95 46.5943 142.107C46.2289 142.369 45.5504 142.526 44.8196 142.421C42.2098 142.002 39.4957 141.269 36.9903 140.588C35.0068 140.064 33.1278 139.54 31.5097 139.226C29.9438 138.964 29.0565 138.964 28.6389 139.121L28.6911 139.173C29.0043 139.592 29.8916 140.011 31.0921 140.378C35.4244 141.635 39.4957 142.578 43.4625 143.312C47.4294 144.045 51.3441 144.569 55.2066 145.093C55.9895 145.197 56.5115 145.407 56.7725 145.616C56.9812 145.774 57.0856 145.983 57.0856 146.193C57.0856 146.455 56.9812 146.612 56.7203 146.769C56.4593 146.926 55.9373 147.083 55.1022 147.083C53.0144 147.135 50.9265 146.978 48.8387 146.821C45.707 146.612 42.523 146.402 39.5479 146.769C38.5561 146.926 38.0342 147.083 37.7732 147.293C37.7732 147.293 37.7732 147.293 37.721 147.293V147.345C37.721 147.345 37.7732 147.397 37.7732 147.45C38.0342 147.712 38.5561 147.974 39.1303 148.078C44.5065 149.44 50.7178 150.331 57.2944 150.907C63.9233 151.483 70.8653 151.745 77.703 151.798C85.167 151.85 92.4744 151.536 99.2076 150.855C105.523 150.226 111.265 149.231 116.276 147.816C116.745 147.659 116.954 147.555 117.006 147.397C117.006 147.45 117.006 147.397 117.006 147.397ZM36.8859 147.397C36.8859 147.083 36.9903 146.769 37.2512 146.559C37.6166 146.245 38.2952 145.983 39.4957 145.826C42.5752 145.407 45.7592 145.616 48.9953 145.878C51.0831 146.035 53.171 146.193 55.2066 146.14C55.3632 146.14 55.5198 146.14 55.6242 146.14C55.4676 146.088 55.311 146.088 55.1544 146.035C51.2397 145.512 47.3772 144.988 43.3581 144.254C39.3391 143.521 35.2156 142.578 30.8833 141.321C29.8916 141.007 29.1087 140.64 28.5345 140.273C27.9082 144.935 25.8726 148.655 23.9413 152.112C23.7847 152.374 23.6281 152.636 23.4715 152.95L23.2106 153.422V153.474C22.532 154.679 22.3232 155.569 22.4798 156.198C22.6364 156.826 23.054 157.245 23.6803 157.612C26.2379 159.236 29.2131 160.284 32.1882 161.331C32.5014 161.436 32.8146 161.541 33.2844 161.698C34.2239 159.655 35.0068 157.507 35.6332 155.15C36.2073 152.741 36.6771 150.174 36.8859 147.397ZM27.6472 139.068C27.6472 139.016 27.6472 138.911 27.6472 138.859C27.6994 138.545 27.9082 138.283 28.2736 138.126C28.8477 137.916 29.9438 137.864 31.6663 138.178C33.3366 138.492 35.2156 139.016 37.2512 139.54C39.7566 140.221 42.4186 140.954 44.9762 141.373C45.446 141.478 45.8635 141.373 46.0201 141.269C46.0723 141.269 46.0723 141.216 46.0723 141.216C46.0723 141.216 46.0723 141.216 46.0723 141.164C45.9679 141.007 45.707 140.797 45.185 140.588C43.4625 139.907 41.3747 139.383 39.0781 138.911C36.7815 138.44 34.2239 138.126 31.6663 137.759C28.4301 137.34 25.455 136.711 23.2628 135.925C21.7491 135.402 20.6008 134.773 19.9222 134.04C19.2959 135.925 19.2437 137.654 19.6091 139.33C20.0266 141.269 21.1227 143.154 22.6886 144.883L23.1062 145.302L22.5842 145.616C22.0101 145.983 21.3315 146.297 20.7052 146.559C18.8783 147.293 16.7905 147.712 15.068 147.659C13.7631 147.607 12.6148 147.345 11.7797 146.716C12.1973 147.502 13.1368 148.236 14.4417 148.969C16.5295 150.174 19.5047 151.274 22.6364 152.374C22.793 152.06 23.0018 151.745 23.2106 151.379C25.0896 147.974 27.2818 144.045 27.6472 139.068ZM132.143 152.531C135.118 151.431 138.25 150.278 140.442 149.021C141.852 148.236 142.896 147.397 143.261 146.559C142.217 147.45 140.651 147.659 138.981 147.502C136.893 147.293 134.596 146.507 132.978 145.774C132.717 145.669 132.456 145.512 132.248 145.407L131.673 145.145L132.091 144.673C133.813 142.735 134.805 140.849 135.223 138.964C135.588 137.34 135.484 135.716 135.066 133.987C134.335 134.721 133.292 135.402 131.778 135.978C129.847 136.711 127.289 137.287 123.844 137.811C122.957 137.916 121.965 138.073 120.973 138.23C117.528 138.702 113.979 139.173 110.325 140.169C109.438 140.378 109.02 140.692 108.864 140.954C108.812 141.007 108.812 141.059 108.812 141.111C108.812 141.164 108.864 141.164 108.864 141.216C109.02 141.373 109.386 141.426 109.908 141.373C112.204 141.007 114.501 140.535 116.798 140.011C119.042 139.488 121.339 138.911 123.583 138.387C124.366 138.178 125.723 138.23 126.506 138.545C126.819 138.649 127.08 138.807 127.237 139.016C127.341 139.173 127.446 139.383 127.393 139.592C127.811 144.726 129.847 148.445 131.882 152.112L132.143 152.531ZM63.6623 95.2759C63.0882 99.6237 64.9672 104.129 68.1511 102.505C70.239 101.457 70.7087 104.967 67.6814 109.577C65.176 112.824 61.4179 114.291 59.7476 113.505C60.3218 110.939 58.7037 109.734 58.4949 107.481C58.2339 104.862 58.2861 102.505 58.8603 100.41C59.1213 104.129 60.5306 104.548 60.374 100.933C60.2174 96.4808 60.374 92.9187 61.4179 91.871C62.0964 93.3901 62.514 94.1235 63.6623 95.2759ZM114.658 63.7935H100.982C100.93 63.4268 100.878 63.1649 100.826 62.903H114.292C114.449 63.1649 114.553 63.4792 114.658 63.7935ZM54.6846 63.7935H40.5918C40.6962 63.4792 40.8006 63.2173 40.9571 62.903H55.2588C54.9978 63.1649 54.8412 63.4792 54.6846 63.7935ZM115.18 90.09H93.6749C93.7271 89.7757 93.7793 89.5138 93.8315 89.1995H115.441C115.388 89.4614 115.284 89.7757 115.18 90.09ZM60.3218 90.09H39.9654C39.861 89.7757 39.7566 89.5138 39.7044 89.1995H60.113C60.2174 89.4614 60.3218 89.7233 60.4262 89.9852C60.4262 89.9852 60.374 90.0376 60.3218 90.09ZM114.449 92.1853H93.5183C93.5183 91.871 93.5183 91.5567 93.5705 91.2948H114.814C114.658 91.5567 114.553 91.871 114.449 92.1853ZM59.4344 92.1853H40.7484C40.644 91.871 40.5396 91.6091 40.4352 91.2948H59.7476C59.6432 91.5567 59.5388 91.871 59.4344 92.1853ZM113.614 94.2806H93.6749C93.6227 93.9663 93.6227 93.652 93.5705 93.3901H113.979C113.875 93.652 113.718 93.9663 113.614 94.2806ZM58.9125 94.2806H41.6357C41.4791 93.9663 41.3747 93.7044 41.2181 93.3901H59.1213C59.0691 93.652 58.9647 93.9663 58.9125 94.2806ZM112.413 96.6379H94.0925C94.0403 96.4284 93.9881 96.1664 93.9359 95.9045L93.8837 95.695H112.883C112.726 96.0617 112.57 96.376 112.413 96.6379ZM58.5993 96.6379H42.8362C42.6796 96.3236 42.523 96.0617 42.3664 95.7474H58.7037C58.6515 96.0617 58.6515 96.376 58.5993 96.6379ZM111.16 98.7332H96.3891C97.172 99.2571 97.9549 99.6761 98.7901 100.095H110.273C110.064 100.41 109.856 100.671 109.647 100.986H100.826C101.974 101.457 103.175 101.824 104.323 102.191H108.707C108.446 102.505 108.238 102.767 107.977 103.081H107.716L107.977 103.133C105.732 106.015 103.175 108.215 100.565 110.362C100.095 110.362 99.312 110.362 98.8423 110.415C98.1115 101.248 95.6583 102.348 94.51 97.9475L94.4578 97.8951C94.4578 97.7903 94.4056 97.7379 94.4056 97.6332C94.5622 97.6332 94.8232 97.7903 94.9798 97.8951H111.682C111.526 98.157 111.369 98.4713 111.16 98.7332ZM57.0334 98.7332H44.0367C43.8279 98.4189 43.6713 98.157 43.5147 97.8427H58.1296C58.1818 97.7903 58.2861 97.7379 58.3383 97.6332C58.3383 97.6856 58.3383 97.738 58.3383 97.8427C58.3383 97.9999 58.3383 98.1046 58.3383 98.2618C58.2861 98.4189 58.2339 98.5237 58.2339 98.6808C57.9208 100.986 57.19 102.872 57.1378 104.862C57.0856 109.21 58.9125 111.253 58.5993 112.353C58.1818 112.353 57.7642 112.353 57.3466 112.353C51.7617 109.158 49.4129 106.172 46.7509 103.133L47.064 103.081H46.8031C46.5421 102.767 46.3333 102.505 46.0723 102.191H50.3524C51.3963 101.876 52.388 101.457 53.4319 100.986H45.2372C45.0284 100.671 44.924 100.41 44.7152 100.095H55.05C55.7285 99.6761 56.4071 99.2571 57.0334 98.7332ZM115.441 65.9936H100.93C100.982 65.6793 101.034 65.4174 101.034 65.1031H115.127C115.232 65.4174 115.336 65.7317 115.441 65.9936ZM54.3193 65.9936H39.8088C39.9132 65.6793 40.0176 65.4174 40.122 65.1031H54.3715C54.3193 65.4174 54.2671 65.7317 54.3193 65.9936ZM116.015 68.089H100.356C100.46 67.7747 100.565 67.5127 100.669 67.1984H115.806C115.858 67.5127 115.963 67.827 116.015 68.089ZM54.7368 68.089H39.2347C39.2869 67.7747 39.3913 67.5127 39.4435 67.1984H54.4758C54.528 67.5127 54.6324 67.827 54.7368 68.089ZM116.484 70.1843H99.5208C99.6252 69.87 99.7818 69.6081 99.8862 69.2938H116.276C116.328 69.6081 116.432 69.9224 116.484 70.1843ZM55.5198 70.1843H38.7649C38.8171 69.87 38.8693 69.6081 38.9215 69.2938H55.1022C55.2588 69.6081 55.4154 69.9224 55.5198 70.1843ZM116.85 72.5939H98.6857C98.7379 72.2796 98.8423 72.0177 98.9467 71.7034H116.745C116.745 72.0177 116.798 72.2796 116.85 72.5939ZM56.5637 72.5939H38.3995C38.4517 72.2796 38.5039 72.0177 38.5039 71.7034H56.1983C56.2505 71.8605 56.3549 72.0177 56.4071 72.1749C56.5115 72.332 56.5637 72.4368 56.5637 72.5939ZM117.006 74.6893H98.6335C98.5291 74.4273 98.4769 74.113 98.4769 73.7987H116.902C116.954 74.0607 117.006 74.375 117.006 74.6893ZM56.6681 74.6893H38.1908C38.1908 74.375 38.243 74.113 38.243 73.7987H56.7203C56.7203 74.113 56.7203 74.375 56.6681 74.6893ZM117.059 76.9417H99.7296C99.6252 76.6274 99.4686 76.3655 99.312 76.0512H117.059C117.059 76.3131 117.111 76.6274 117.059 76.9417ZM56.4593 76.9417H38.0864C38.0864 76.6274 38.0864 76.3655 38.0864 76.0512H56.4593C56.4593 76.3131 56.4593 76.6274 56.4593 76.9417ZM117.006 79.0371H100.408C100.356 78.7228 100.252 78.4609 100.147 78.1466H117.006C117.059 78.4085 117.059 78.7228 117.006 79.0371ZM57.1378 79.0371H38.0864C38.0864 78.7228 38.0864 78.4609 38.0864 78.1466H56.7203C56.8247 78.4085 56.9291 78.7228 57.1378 79.0371ZM116.85 81.3943H100.565C100.565 81.08 100.617 80.7657 100.565 80.5038H116.902C116.902 80.8181 116.902 81.1324 116.85 81.3943ZM58.9647 81.3943H38.243C38.243 81.08 38.1908 80.8181 38.1908 80.5038H58.1818C58.3905 80.7133 58.5471 80.9229 58.8081 81.1848C58.8081 81.2896 58.9125 81.3419 58.9647 81.3943ZM116.641 83.4897H100.199C100.252 83.3325 100.304 83.1754 100.356 83.0182C100.408 82.8611 100.408 82.7563 100.46 82.5992H116.798C116.693 82.9135 116.693 83.2277 116.641 83.4897ZM59.9042 83.4897H38.5039C38.4517 83.1754 38.3995 82.9135 38.3995 82.5992H59.6954C59.7476 82.9135 59.852 83.1754 59.9042 83.4897ZM116.276 85.7421H98.1637C98.6335 85.5326 99.0511 85.2183 99.3642 84.8516H116.432C116.38 85.1659 116.328 85.4278 116.276 85.7421ZM95.3452 85.7421H94.6666L94.771 85.3755C94.9798 85.5326 95.1364 85.6374 95.3452 85.7421ZM59.9042 85.7421H38.8693C38.8171 85.4278 38.7649 85.1659 38.7127 84.8516H60.0086C59.9564 85.1659 59.9564 85.4278 59.9042 85.7421ZM115.806 87.8375H94.1447C94.1968 87.5232 94.3012 87.2613 94.3534 86.947H116.015C115.963 87.2613 115.858 87.5232 115.806 87.8375ZM59.852 87.8375H39.3391C39.2869 87.5232 39.1825 87.2613 39.1303 86.947H59.852C59.852 87.2613 59.852 87.5232 59.852 87.8375ZM94.9276 41.9496H92.7354C92.37 41.6353 92.0046 41.3734 91.5871 41.0591H92.892C93.6227 41.321 94.3012 41.6353 94.9276 41.9496ZM62.0442 41.9496H60.8959C61.6267 41.583 62.253 41.2687 62.8272 41.0591H63.0882C62.7228 41.3734 62.4096 41.6353 62.0442 41.9496ZM98.7379 44.045H95.2408C94.9276 43.7307 94.5622 43.4688 94.249 43.1545H97.2764C97.7984 43.4688 98.3203 43.7831 98.7379 44.045ZM60.0086 44.045H57.19C57.712 43.7307 58.1818 43.4164 58.6515 43.1545H60.7915C60.5828 43.4688 60.2696 43.7307 60.0086 44.045ZM101.609 46.1403H97.2242C96.9632 45.826 96.7022 45.5117 96.4413 45.2498H100.408C100.826 45.5117 101.191 45.826 101.609 46.1403ZM58.4427 46.1403H54.1627C54.5802 45.826 54.9978 45.5117 55.4154 45.2498H59.0691C58.8603 45.5641 58.6515 45.826 58.4427 46.1403ZM104.375 48.5499H98.7379C98.5813 48.2356 98.4247 47.9213 98.2681 47.6594H103.383C103.696 47.9213 104.062 48.2356 104.375 48.5499ZM57.0856 48.5499H51.2397C51.6051 48.2356 51.9183 47.9213 52.2836 47.6594H57.5554C57.3466 47.9213 57.19 48.2356 57.0856 48.5499ZM106.463 50.6453H99.5208C99.4164 50.331 99.3642 50.0167 99.2598 49.7548H105.628C105.889 50.0167 106.15 50.331 106.463 50.6453ZM56.1983 50.6453H48.9953C49.3085 50.331 49.5694 50.0167 49.8826 49.7548H56.5115C56.4071 50.0167 56.3027 50.331 56.1983 50.6453ZM108.394 52.8454H99.8862C99.8862 52.5311 99.834 52.2168 99.7818 51.9549H107.611C107.872 52.2692 108.133 52.5835 108.394 52.8454ZM55.6242 52.8454H47.0119C47.2728 52.5311 47.5338 52.2692 47.7948 51.9549H55.8329C55.7285 52.2692 55.6764 52.5835 55.6242 52.8454ZM109.96 54.9407H99.8862C99.8862 54.6264 99.8862 54.3121 99.8862 54.0502H109.281C109.542 54.3645 109.751 54.6264 109.96 54.9407ZM55.3632 54.9407H45.3416C45.5504 54.6264 45.8113 54.3645 46.0201 54.0502H55.4676C55.4154 54.3645 55.4154 54.6788 55.3632 54.9407ZM111.526 57.3504H99.6252C99.6774 57.0361 99.7296 56.7218 99.7296 56.4598H110.9C111.16 56.7218 111.317 57.0361 111.526 57.3504ZM55.3632 57.3504H43.7757C43.9845 57.0361 44.1411 56.7741 44.3499 56.4598H55.3632C55.3632 56.7741 55.3632 57.0361 55.3632 57.3504ZM112.726 59.4457H99.2598C99.312 59.1314 99.4164 58.8171 99.4686 58.5552H112.257C112.361 58.8171 112.518 59.1314 112.726 59.4457ZM55.572 59.4457H42.523C42.6796 59.1314 42.8362 58.8695 42.9928 58.5552H55.4154C55.4676 58.8695 55.5198 59.1314 55.572 59.4457ZM113.77 61.6982H100.199C99.6774 61.122 99.1033 61.122 98.9989 60.8077H113.353C113.509 61.0696 113.666 61.3839 113.77 61.6982ZM55.9895 61.6982H41.4269C41.5835 61.3839 41.6879 61.122 41.8445 60.8077H55.7807C55.8329 61.0696 55.9373 61.3839 55.9895 61.6982ZM61.4701 49.5452C61.0003 50.1214 60.4262 51.9025 60.2696 52.8978C60.113 54.0502 60.8959 56.9313 60.5306 56.3027C60.113 55.7265 59.591 54.6788 59.4866 53.6311C59.0169 56.9313 59.7998 60.7553 63.036 64.4221C61.8877 64.265 60.9481 63.4792 60.113 62.5887C60.0086 63.2697 61.3657 64.9983 61.2091 65.4698C60.2174 64.6316 59.4866 64.3697 59.6432 64.9459C60.4784 67.3556 60.6872 68.2461 60.5306 70.551C59.591 68.4033 58.4949 68.3509 59.0691 67.9842C59.7476 67.5127 57.7642 65.4698 56.9812 65.7317C57.712 64.684 58.9647 66.4651 59.5388 66.5174C58.6515 64.2126 56.8247 64.1078 56.5637 65.2602C56.3549 66.3079 56.5115 66.6746 56.8769 67.827C57.2944 69.0319 58.6515 70.3414 58.7559 70.6034C59.0691 71.3891 57.7642 70.0795 57.9208 70.4986C58.1296 71.0224 58.3905 71.7558 58.4949 72.2272C58.7037 73.694 58.2861 79.3514 60.0086 77.7799C61.2613 76.6274 59.9564 76.4703 60.2696 75.0036C61.1047 71.3891 59.591 74.7416 59.6432 73.5368C59.6432 73.013 60.1652 71.2843 60.4784 71.7558C62.1486 74.4797 61.4701 77.0465 62.8794 78.0942C63.9233 78.8799 64.5496 80.0847 64.9672 81.1848C65.0194 81.2372 65.0194 81.3419 65.0716 81.3943C65.4892 82.5991 66.2199 82.4944 66.5331 83.0706C67.0028 83.8563 66.9506 84.5373 66.9506 85.4802C66.7941 84.1183 65.8023 82.6515 65.9589 83.7516C66.0633 84.1183 66.1155 84.6945 66.0633 85.3231C65.9067 84.223 65.4892 83.6468 65.437 84.2754C65.437 84.3278 65.3848 84.3278 65.3848 84.3278C64.7062 86.3184 63.7667 81.3943 62.8794 82.5468C62.0442 83.6468 62.6706 88.8852 64.3409 91.3472C64.7584 91.9758 65.2282 92.6044 65.6458 93.233C65.8023 92.9711 66.0111 92.8139 66.3243 92.6568C65.1238 87.9423 67.9424 86.5803 72.5356 86.947C71.8049 86.5279 71.6483 86.0041 71.5961 85.5326C70.8131 84.904 70.7609 84.3278 70.9697 83.6992C70.5 84.223 70.8131 85.5326 70.2912 86.4231C70.6565 85.4279 69.8214 83.9087 70.6044 83.2277C71.2829 82.6515 70.9697 81.6039 71.9614 81.6039C71.2307 81.9706 71.7527 82.5468 71.3351 83.3325C71.4395 84.4326 72.0658 84.3802 72.379 84.0659C72.5878 84.0135 73.6839 81.1848 73.5273 78.4085C73.4751 77.0465 74.9366 76.2084 74.6756 74.2178C75.4064 76.3655 74.3624 77.256 74.3102 78.618C74.2059 80.7657 73.7361 82.9135 73.7361 83.6468C73.0054 85.4278 73.3185 86.0565 74.1015 86.3184C74.8844 87.1565 75.9805 87.366 77.442 86.3184C79.2167 85.8993 77.8596 85.1659 78.0162 83.7516C78.2771 84.0135 78.7469 84.0659 78.7991 84.5897C78.5903 85.1136 79.6864 85.3231 79.9474 84.7992C80.1562 84.3278 80.3128 84.1183 80.1562 83.5944C79.7386 83.0182 79.8952 82.442 79.1645 82.3896C80.1562 82.0753 80.1562 83.1754 80.9913 83.5421C81.9308 83.9087 81.6177 85.6374 82.2962 86.5279C81.5133 85.8469 81.3567 84.485 80.7303 84.1707C81.0957 84.7469 81.1479 85.585 80.365 86.4231C83.3923 86.5803 85.1148 87.4184 85.5323 88.8852C85.7933 89.9328 85.4801 91.19 85.9499 92.1853C86.3675 93.0758 86.5241 94.2806 86.5241 95.4331C87.7768 94.1235 88.9773 92.6568 90.1778 91.19C91.6393 89.3042 92.4222 87.6803 92.7354 85.1659C92.9442 83.4897 91.4827 84.223 91.3783 85.6898C91.2217 88.4137 90.0212 89.2518 89.1339 89.8281C88.2465 90.4567 90.8563 86.8946 88.9251 85.4278C88.7163 85.2707 87.568 85.4802 87.3592 85.3755C86.4197 84.8516 87.829 84.2754 89.4992 82.9658C89.5514 82.8087 89.708 82.6515 89.9168 82.442C90.0734 82.1801 90.23 81.9182 90.3344 81.7086C90.5953 80.9753 90.4388 79.1942 90.5953 79.5609C90.6475 80.2943 90.9607 80.6086 91.0129 81.0276C91.0129 80.9753 91.0651 80.9229 91.0651 80.9229C91.4305 80.0847 91.2217 78.0942 91.4305 78.5132C91.7436 78.9847 91.9524 79.9276 91.6393 80.8181C92.2134 80.0324 92.6832 79.0371 92.9963 77.8846C93.1529 76.4703 93.7793 76.837 93.9881 76.2608C94.3534 75.2655 93.9359 74.0083 94.771 73.1701C95.1364 72.8035 96.1803 73.0654 95.5539 73.694C94.4578 74.794 95.5017 77.0465 96.1281 76.7322C97.9027 75.7369 96.8588 73.0654 97.1198 71.232C97.2764 70.0795 98.3203 68.2461 98.9989 66.6746C99.1554 66.3603 98.2159 66.727 98.2681 66.4127C98.3203 66.0984 99.3642 65.0507 99.312 64.7364C99.2076 63.584 98.6335 62.7982 97.7984 63.0601C97.3808 63.2173 96.8066 63.4792 96.3891 65.1031C96.3369 65.3126 97.5374 63.1125 98.5813 64.0554C97.7462 63.8983 95.6583 67.6175 96.2847 67.827C97.433 68.2985 95.5539 70.1843 95.293 70.97C94.771 72.5415 95.3452 67.6175 95.5539 65.9412C97.0676 59.1838 94.1969 65.1555 89.7602 64.5793C94.4056 62.7458 95.0842 59.76 92.0046 61.1743C96.8066 57.4027 97.0676 54.2074 96.7022 52.1644C95.6061 45.7736 89.1339 42.002 85.7411 41.321C85.6889 41.3734 85.6367 41.4782 85.5845 41.5306C87.046 45.2498 83.5489 46.1403 84.7494 48.4452C83.6533 47.7642 82.5572 46.6118 83.3923 44.9879C81.6177 46.5594 81.5133 47.869 82.2962 49.1262C85.7933 49.4928 82.1918 54.5216 84.6972 55.4122C86.4719 56.3551 86.2631 60.441 85.0104 63.6887C85.1148 63.6887 85.2192 63.6887 85.3236 63.6887C86.5241 63.6887 89.2382 62.903 88.6641 63.2173C87.9333 63.6887 86.1587 64.265 84.8016 64.1602C84.5928 64.5793 84.4362 64.9983 84.1753 65.4174C85.167 65.6269 86.1065 66.0984 86.6285 66.5698C87.1504 66.9365 85.1148 66.2031 83.8099 66.046C83.6011 66.3603 83.3923 66.6222 83.1313 66.8841C83.1835 66.5698 83.2357 66.3079 83.2879 66.046C82.8182 66.0984 82.1918 66.2031 81.5655 66.3079C80.8347 67.7223 79.843 68.9795 78.6947 70.1319C79.0079 68.9795 79.2167 68.0366 79.321 67.2508C78.6947 67.5651 78.0162 67.6699 77.442 67.4604C77.2332 67.3556 77.0244 67.3032 76.8678 67.2508C76.9722 69.0318 76.5025 70.8129 77.964 73.1178C75.4586 71.9129 73.4229 69.7128 72.0136 66.2555C71.3873 66.046 70.7609 65.8365 70.3434 65.7317C69.2995 65.5745 67.3682 65.5745 66.6375 65.7317C66.9506 64.9983 68.0989 65.3126 69.456 65.1555C70.1868 65.0507 71.0219 65.2602 71.8048 65.5745C71.8048 65.5222 71.7527 65.4698 71.7527 65.4174C71.2829 64.9983 70.8131 64.5793 70.3956 64.1602C69.6126 63.9507 67.4726 64.3173 67.9424 64.1078C68.3599 63.8459 69.1429 63.6364 69.8214 63.6364C63.0882 56.5646 63.6623 48.9166 64.5496 44.464V44.4117C63.036 45.6689 61.0525 48.3404 60.0608 51.6406C60.4262 50.5929 60.7393 49.8071 61.4701 49.5452ZM94.5622 49.65C94.8754 50.331 95.1364 52.1644 95.0842 53.1597C95.032 54.3121 93.6749 56.9837 94.1447 56.4598C94.9798 55.7265 96.0759 53.7359 95.6583 52.3215C95.293 51.012 95.5539 49.9119 94.5622 49.65ZM82.4528 63.3744C82.505 63.3744 82.5572 63.3744 82.6094 63.4268C82.8704 63.4792 83.1835 63.4792 83.3923 63.5316C83.3401 63.0078 83.0791 62.6935 82.5572 62.3792C82.5572 62.6935 82.505 63.0601 82.4528 63.3744ZM83.4445 63.8983C83.1313 63.8459 82.8704 63.7935 82.6094 63.7935C82.5572 63.7935 82.4528 63.7935 82.4006 63.7935C82.244 64.4221 82.0352 65.0507 81.7742 65.6793C81.9308 65.6269 82.0874 65.5745 82.244 65.5222C82.5572 65.365 82.9226 65.3126 83.2879 65.365C83.3923 64.684 83.4445 64.265 83.4445 63.8983ZM78.9557 63.9507C77.7552 64.2126 76.6591 64.4745 77.0766 64.265C77.442 64.003 78.0684 63.7411 78.7991 63.584C78.1727 62.2744 77.1288 61.122 76.8157 56.9313C76.5025 59.2362 76.2937 59.8124 75.3542 61.1743C75.302 58.2933 73.6839 58.6076 73.6317 56.4598C72.6922 60.7553 74.4146 58.5552 74.2581 62.7458C75.1454 63.4792 75.7195 64.2126 76.0849 64.8936C76.2937 64.9459 76.5025 64.9983 76.6591 65.0507C77.3898 65.2079 79.2688 64.684 78.8513 64.9459C78.3293 65.3126 77.181 65.6793 76.3459 65.4698C76.5025 65.8365 76.6069 66.2031 76.6591 66.5698C77.181 66.6746 77.703 66.727 78.0683 66.727C78.3815 66.727 78.8513 66.5698 79.2689 66.3603C79.3732 65.3126 79.2167 64.5793 78.9557 63.9507ZM67.6292 77.8323C67.577 78.2513 68.5165 76.9417 68.9863 76.6798C69.5082 76.3655 69.4038 76.1036 70.3434 75.6845C70.2912 75.6845 70.239 75.6845 70.1868 75.6845C70.1868 75.6322 70.1346 75.6322 70.0302 75.6322C68.099 75.5274 66.5853 75.1607 66.1155 74.2178C65.9067 73.7987 66.1155 72.6987 66.6897 72.6987C66.7941 73.8511 67.4204 74.6369 68.3077 74.7416C67.9946 74.4797 67.316 73.9559 67.9424 72.8035C67.7858 74.5321 70.1346 74.4273 70.239 72.9606C70.6565 73.5892 70.1868 74.5321 69.6648 74.794C70.6565 74.7416 71.4395 73.8511 71.8048 73.1701C72.901 73.694 73.3707 75.6322 72.5356 77.0465C73.6839 76.2084 73.5273 73.9559 73.1619 72.8035C72.901 71.9653 73.2663 70.7081 72.379 70.551C67.0028 70.1843 68.0468 69.0318 65.8545 68.6652C63.8189 68.2985 61.8355 66.1508 61.6789 66.5698C60.9481 68.6652 62.2008 69.9224 63.9233 70.2367C63.7145 71.4939 63.7667 72.8035 64.8628 74.0607C65.7501 75.1083 67.838 75.7369 68.4121 76.5751L68.3599 76.6274C67.8902 77.1513 67.6292 77.2037 67.6292 77.8323ZM88.2987 76.5751C87.6724 76.6274 89.3948 75.5798 89.708 74.2702C89.7602 73.9559 89.6036 73.2225 89.2383 73.8511C89.2383 73.9035 89.1861 73.9559 89.1861 73.9559C89.0295 74.2702 88.7685 74.5321 88.5075 74.8464C87.4636 75.8941 85.2192 76.3131 84.7494 77.2037C84.1753 76.4703 82.5572 76.0512 83.2879 76.0512C85.2192 76.0512 86.7328 75.8417 87.2548 74.8988C87.5158 74.4797 87.3592 73.3797 86.785 73.3273C86.5763 74.4273 85.8977 75.1607 85.0626 75.2655C85.3758 75.0559 86.1065 74.5845 85.5845 73.3273C85.6367 75.0559 83.2879 74.794 83.2879 73.3273C82.8182 73.9559 83.1835 74.8988 83.7055 75.2131C82.7138 75.1083 82.0352 74.1654 81.6699 73.4321C80.9391 73.694 80.9391 75.2131 80.6781 76.0512C80.6259 76.3131 80.5216 77.4656 81.3045 78.7752C80.365 78.1989 80.1562 76.6798 79.9996 76.6274C78.8513 76.2084 79.8952 74.113 80.3128 72.9606C80.6259 72.1225 80.365 70.8653 81.2523 70.8129C86.6807 70.8653 85.6889 69.6081 87.8812 69.3985C89.969 69.189 92.0568 67.1984 92.2134 67.5651C92.7876 69.6605 91.4305 70.8653 89.708 71.0748C89.708 71.1796 89.708 71.2843 89.708 71.3891C89.7602 72.5939 90.3344 73.1701 90.7519 73.0654C91.0129 73.013 91.5349 73.694 90.1256 74.7416C89.2383 75.4226 89.3948 76.4179 88.2987 76.5751ZM66.0111 76.2608C66.6897 76.2084 64.4453 75.1607 63.9233 74.5845C63.2969 73.9035 62.8794 71.9653 62.775 72.4368C62.5662 73.1701 62.8794 74.6369 63.9755 75.3179C64.915 75.8941 65.1238 76.4703 66.0111 76.2608ZM74.3102 96.0617C74.78 95.1188 75.563 94.7521 76.6591 94.9092C76.92 94.9616 77.8074 94.333 77.2332 94.333C76.6591 94.4378 76.0327 94.3854 75.4064 94.2283C73.4229 93.7044 72.379 94.1235 71.4917 92.7615C70.7087 91.871 74.8844 93.4949 76.3459 93.4949C77.964 93.4949 81.0435 91.7662 80.5216 92.4472C80.4694 92.552 80.365 92.6568 80.2606 92.7615C80.2084 93.5473 77.7552 95.9569 76.7113 95.6426C75.6673 95.2759 75.1454 95.7998 74.3102 96.0617ZM79.8952 78.8799C80.4694 79.1942 79.0601 77.1513 78.9035 76.3655C78.7469 75.475 79.321 73.5368 79.0079 73.9559C78.4859 74.4797 77.964 75.8941 78.5903 76.9941C79.1123 77.9894 79.0079 78.618 79.8952 78.8799ZM86.1065 39.9591C86.7328 37.1827 84.4362 33.4635 77.8074 33.5159C70.6565 33.5683 66.9506 37.6542 64.9672 42.7354C64.915 42.7878 64.8628 42.7878 64.8106 42.8402C59.4866 46.4546 55.7285 53.2645 58.1296 63.3744C55.4676 63.2173 55.311 66.1508 57.5032 71.0224C58.2861 72.8035 58.4949 74.4273 57.9208 76.4179C57.2422 78.7752 58.7037 79.98 59.9564 79.3514C60.8959 78.8799 61.3657 81.2372 61.4701 83.5421C61.7311 88.9375 62.8272 91.6615 65.0194 94.2283C65.1238 94.333 65.176 94.4378 65.2804 94.5426C65.2804 94.6473 65.3326 94.8045 65.3848 94.9616C64.2887 99.4142 66.4287 100.776 68.2555 100.986C67.055 99.8333 67.7336 99.0475 67.7858 97.2665C71.0741 100.567 74.1537 102.61 76.9722 102.348C78.9035 102.295 80.8347 101.09 82.8182 99.4666C82.8182 100.933 82.3484 102.243 81.6699 102.924C84.0187 102.61 83.4967 100.2 85.2714 99.2571C85.6889 98.9952 86.0543 97.8427 86.2109 96.5331C86.8894 95.9569 87.568 95.3283 88.2465 94.7521C89.1339 94.1759 89.447 94.5426 89.3948 95.4855C89.0817 99.3618 89.9168 101.876 91.4827 103.762C92.3178 105.124 93.7271 106.8 95.5539 108.581C92.4222 111.253 90.8041 109.524 89.8124 111.096C88.9773 112.405 87.6724 112.091 87.2026 112.72C84.6972 116.282 84.0709 119.268 84.0187 122.253C85.7933 118.796 86.4719 116.648 89.6558 113.977C91.9524 112.091 95.3452 110.153 95.9193 111.515C97.5896 115.182 98.9989 116.072 100.774 116.386C98.9467 114.239 97.3808 111.724 97.172 108.057C96.9632 104.129 94.7188 103.5 93.2051 101.51L93.1529 101.457C92.8398 100.986 92.5266 100.462 92.3178 99.8333C92.3178 99.8857 92.3178 99.8857 92.3178 99.9381C91.1695 97.1617 91.2739 93.3901 92.3178 89.0423C93.4139 86.5279 93.7793 84.6945 93.6749 80.8705C93.6749 80.4514 94.3012 79.299 94.51 78.5132C93.8837 80.399 94.3012 84.6421 96.7022 84.6945C98.6857 84.6945 99.2076 81.6562 99.1033 80.1371C98.9989 78.5132 98.6335 77.6227 97.5896 76.5227C97.7984 74.794 97.2764 73.8511 97.3286 73.0654C97.4852 70.1319 99.2076 68.4033 99.4686 65.365C99.6252 63.7935 99.2076 62.3792 96.8066 62.0125C97.9028 59.1314 98.3725 55.0979 97.7462 52.112C96.5457 46.2451 91.6393 42.1068 86.1065 39.9591ZM82.766 98.6285C82.7138 98.157 82.6094 97.6856 82.505 97.2141C82.0874 95.7474 83.1835 94.1759 82.9226 93.7044C81.8264 92.2377 82.6616 90.4043 80.104 90.9281C79.1123 91.19 78.1727 91.3472 77.3376 91.19C76.2415 91.7139 74.9888 91.7139 73.5795 91.1376C70.8653 90.9281 68.099 90.2471 68.5165 93.1806C68.5165 94.7521 67.5248 95.014 67.6814 95.9045C67.6814 96.0617 67.7336 96.2188 67.7336 96.3236C68.5687 97.3189 69.5604 98.2094 70.6565 98.8904C76.6069 102.61 73.3185 98.0522 76.3981 98.7856C78.2771 99.2571 78.2771 101.771 81.5133 99.519C81.9308 99.2571 82.3484 98.9428 82.766 98.6285ZM96.8066 77.6227C97.8506 77.8323 98.3203 79.1942 98.2681 80.8181C98.2159 82.442 97.7462 83.6992 96.911 83.6992C96.0759 83.6992 95.6583 82.442 95.6061 80.8705C95.5539 79.7704 95.8149 78.7752 96.2847 78.1989C96.911 77.5703 97.5374 78.6704 97.7462 80.4514C97.9549 79.0371 97.3286 77.8846 96.8066 77.6227ZM103.644 42.0544C97.6418 37.6542 91.2217 35.1922 84.1753 33.8302C86.4197 34.8255 87.8812 36.5541 88.4553 37.5494C94.6666 39.3305 98.4769 41.7925 101.974 44.2545C115.388 54.4169 118.729 67.827 119.094 77.8323C118.468 100.252 103.488 110.31 100.304 112.562C100.617 113.243 101.191 114.186 101.87 115.024C116.171 105.491 121.861 90.8757 121.756 77.9894C121.6 64.3697 115.91 51.2215 103.644 42.0544ZM70.9175 106.591C75.9283 111.777 75.4586 108.791 76.9722 110.048C78.4337 111.2 80.0518 112.51 81.7742 113.872C83.3401 115.548 83.2357 116.963 83.3401 118.429C83.8099 116.334 84.2796 115.024 85.0626 113.401C85.7933 112.51 86.6285 111.2 87.3592 111.148C87.9333 109.681 88.3509 109.367 88.8207 108.791C87.5158 108.372 85.6889 105.543 85.5845 102.61C84.0187 104.286 85.6889 108.005 83.6011 108.477C79.8952 109.367 73.3185 106.015 71.5961 102.348C71.9614 103.972 71.4395 105.543 70.9175 106.591ZM59.4344 114.71C62.514 115.915 67.838 113.505 70.239 108.319C74.78 112.51 74.78 111.148 76.2937 112.353C77.4942 113.296 78.4337 114.239 79.4254 115.182C81.5133 118.272 81.4089 120.787 81.2523 123.301C76.9722 115.863 73.3707 111.986 70.9697 114.396C66.6897 117.853 62.253 118.796 57.6598 117.172C44.7152 110.991 33.0756 95.1712 33.5975 77.1513C34.2761 52.0073 53.2753 37.6542 69.5604 33.9874C66.8463 35.5065 66.1677 36.7637 65.4892 37.8637C58.7559 39.5924 37.199 50.6453 36.4683 76.4179C35.9463 94.0711 46.0201 108.529 59.4344 114.71ZM140.756 87.2613C140.756 87.628 140.703 87.8375 140.703 88.4661C142.321 88.3089 142.739 89.2518 142.687 90.0376C142.53 91.7139 141.069 92.2901 139.503 92.4996C139.451 92.6568 139.451 92.8139 139.398 92.9711C140.599 93.1806 141.225 93.652 141.225 94.2806C141.225 95.695 138.094 96.5331 134.544 96.5331C131.099 96.5331 127.185 95.9045 127.393 94.2283C127.498 93.4949 128.385 93.1806 129.377 93.0758C128.803 92.3948 127.602 90.09 127.759 87.4184C127.811 86.4755 129.742 86.0564 132.3 85.9517C131.934 84.6945 132.613 84.1183 133.605 83.4373C134.805 82.6515 134.962 81.8658 134.022 80.7657C134.91 80.9753 135.588 81.4467 135.64 82.442C135.693 83.4373 133.918 84.223 133.552 85.2707C133.448 85.6374 133.448 85.8993 133.552 86.0565C133.866 86.0565 134.283 86.0565 134.596 86.0565C134.596 85.6374 134.91 85.3231 135.588 84.8516C136.475 84.223 136.528 83.5421 136.058 83.0182C136.528 83.123 136.893 83.4897 136.893 84.1707C136.893 85.0612 135.693 85.3231 135.849 86.0041C138.354 86.1088 140.756 86.3184 140.756 87.2613ZM134.231 87.5756C133.396 87.366 132.77 86.9994 132.404 86.4231C129.638 86.5279 128.489 86.8422 128.385 87.2613C128.281 87.7327 129.377 88.3089 134.179 88.3613C137.676 88.4137 139.868 88.0994 139.973 87.366C140.077 86.6327 137.937 86.4231 135.693 86.3708C135.64 86.7374 135.484 86.9994 135.797 87.628C135.379 87.5232 134.492 87.366 134.544 86.3708C134.335 86.3708 133.866 86.3708 133.605 86.3708C133.866 86.8422 134.074 87.2613 134.231 87.5756ZM140.599 89.0947C140.442 90.09 140.129 90.9805 139.764 91.871C140.703 91.6615 141.591 91.3472 141.956 90.2995C142.06 89.409 141.695 88.9899 140.599 89.0947ZM129.794 94.0187C131.569 95.3807 136.423 95.4855 138.511 94.0711C137.467 95.4855 136.214 95.7998 134.074 95.7998C131.621 95.7474 130.369 95.1712 129.794 94.0187ZM128.698 88.5709C129.064 88.7804 129.742 88.8852 130.212 88.8852C130.003 90.509 130.63 91.7139 131.047 92.7091C129.847 92.552 128.646 90.7186 128.698 88.5709ZM26.6033 87.2613C26.6033 87.628 26.5511 87.8375 26.5511 88.4661C28.1692 88.3089 28.5867 89.2518 28.5345 90.0376C28.378 91.7139 26.9165 92.2901 25.3506 92.4996C25.2984 92.6568 25.2984 92.8139 25.2462 92.9711C26.4467 93.1806 27.0731 93.652 27.0731 94.2806C27.0731 95.695 23.9413 96.5331 20.392 96.5331C16.9471 96.5331 13.0324 95.9045 13.2412 94.2283C13.3456 93.4949 14.2329 93.1806 15.2246 93.0758C14.6505 92.3948 13.45 90.09 13.6065 87.4184C13.6587 86.4755 15.59 86.0564 18.1476 85.9517C17.7822 84.6945 18.4607 84.1183 19.4525 83.4373C20.653 82.6515 20.8096 81.8658 19.87 80.7657C20.7574 80.9753 21.4359 81.4467 21.4881 82.442C21.5403 83.4373 19.7656 84.223 19.4003 85.2707C19.2959 85.6374 19.2959 85.8993 19.4003 86.0565C19.7134 86.0565 20.131 86.0565 20.4442 86.0565C20.4442 85.6374 20.7574 85.3231 21.4359 84.8516C22.3232 84.223 22.3754 83.5421 21.9057 83.0182C22.3754 83.123 22.7408 83.4897 22.7408 84.1707C22.7408 85.0612 21.5403 85.3231 21.6969 86.0041C24.2023 86.1088 26.6033 86.3184 26.6033 87.2613ZM20.0788 87.5756C19.2437 87.366 18.6173 86.9994 18.252 86.4231C15.4856 86.5279 14.3373 86.8422 14.2329 87.2613C14.1285 87.7327 15.2246 88.3089 20.0266 88.3613C23.5237 88.4137 25.716 88.0994 25.8204 87.366C25.9247 86.6327 23.7847 86.4231 21.5403 86.3708C21.4881 86.7374 21.3315 86.9994 21.6447 87.628C21.2271 87.5232 20.3398 87.366 20.392 86.3708C20.1832 86.3708 19.7134 86.3708 19.4525 86.3708C19.7134 86.8422 19.9222 87.2613 20.0788 87.5756ZM26.4467 89.0947C26.2901 90.09 25.9769 90.9805 25.6116 91.871C26.5511 91.6615 27.4384 91.3472 27.8038 90.2995C27.9082 89.409 27.5428 88.9899 26.4467 89.0947ZM15.6422 94.0187C17.4168 95.3807 22.271 95.4855 24.3589 94.0711C23.315 95.4855 22.0623 95.7998 19.9222 95.7998C17.469 95.7474 16.2163 95.1712 15.6422 94.0187ZM14.5461 88.5709C14.9114 88.7804 15.59 88.8852 16.0597 88.8852C15.851 90.509 16.4773 91.7139 16.8949 92.7091C15.6944 92.552 14.4939 90.7186 14.5461 88.5709ZM43.306 112.51L43.8801 113.243C44.0367 113.401 44.0889 113.558 44.0367 113.715C44.0367 113.872 43.8279 114.134 43.4625 114.448L40.5918 117.225C40.5396 117.277 40.4874 117.329 40.4352 117.382C40.2264 117.539 40.0176 117.644 39.8088 117.591C39.6522 117.539 39.3913 117.329 39.1303 117.015C38.8171 116.596 38.6605 116.229 38.6605 115.967C38.6605 115.705 38.9215 115.234 39.3391 114.658C40.4352 113.191 40.6962 112.039 40.122 111.358C39.6522 110.781 38.9215 110.834 37.9298 111.62L27.0209 120.158C26.2901 120.734 26.1857 121.31 26.6555 121.939C27.2818 122.725 28.2214 122.725 29.5263 121.887C29.8916 121.625 30.2048 121.572 30.4658 121.625C30.7268 121.677 31.0921 121.991 31.5097 122.515C31.8229 122.934 31.9795 123.249 32.0317 123.458C32.0317 123.668 31.9273 123.93 31.6141 124.139C30.6746 124.873 29.6306 125.03 28.378 124.715C27.1253 124.349 26.0291 123.615 25.0896 122.358C24.1501 121.153 23.6281 119.949 23.4193 118.639C23.2106 117.329 23.5237 115.863 24.2545 114.239C24.9852 112.615 26.3423 111.043 28.2736 109.524C30.1004 108.11 31.7707 107.219 33.3365 106.905C34.8502 106.591 36.2595 106.643 37.5122 107.01C38.7649 107.376 39.861 108.162 40.7484 109.262C41.2703 109.943 41.6357 110.624 41.7401 111.358C41.7923 111.62 41.8445 111.777 41.9489 111.881C42.0532 111.986 42.262 112.091 42.5752 112.143C42.9928 112.248 43.2016 112.353 43.306 112.51ZM52.7012 122.672C53.2232 121.782 53.0666 121.101 52.1792 120.577C51.8139 120.368 51.4485 120.315 51.0831 120.368C50.7178 120.42 50.4046 120.629 50.248 120.944L42.8884 133.882C42.6274 134.302 42.5752 134.721 42.6796 135.087C42.784 135.454 43.045 135.716 43.3581 135.925C43.7235 136.135 44.1411 136.187 44.5065 136.083C44.8718 135.978 45.185 135.768 45.3416 135.454L52.7012 122.672ZM68.5165 135.873L67.1072 143.207C67.055 143.573 67.316 143.94 67.9946 144.202C68.3077 144.359 68.5165 144.464 68.6209 144.569C68.6731 144.673 68.7253 144.883 68.6209 145.145C68.5165 145.616 68.4121 145.878 68.3077 145.931C68.2033 145.983 67.9424 145.983 67.577 145.931L59.4866 144.359C59.0169 144.254 58.7559 144.15 58.6515 143.992C58.5471 143.835 58.4949 143.573 58.5993 143.207C58.6515 142.945 58.7037 142.788 58.8081 142.735C58.9125 142.683 59.1213 142.631 59.4344 142.578C59.9042 142.526 60.2174 142.473 60.3218 142.421C60.4262 142.369 60.5306 142.211 60.5828 142.054L63.4013 127.439C63.4535 127.23 63.4013 127.073 63.2969 126.916C63.1925 126.758 62.9316 126.601 62.5662 126.392C62.3052 126.235 62.2008 126.025 62.253 125.711C62.253 125.658 62.3052 125.501 62.3574 125.187C62.514 124.873 62.8272 124.768 63.2969 124.82L74.3624 126.968C74.6756 127.02 74.9366 127.125 75.041 127.23C75.1454 127.335 75.1976 127.544 75.2498 127.806C75.2498 127.858 75.2498 127.911 75.2498 128.016L75.5107 130.844C75.5107 131.001 75.5107 131.159 75.5107 131.316C75.4586 131.578 75.1454 131.63 74.5712 131.525C73.8405 131.368 73.3707 131.211 73.2141 130.949C73.0576 130.739 72.8488 130.163 72.5878 129.325C72.4312 128.801 72.2224 128.435 72.0136 128.225C71.8049 128.016 71.4395 127.858 70.9175 127.754C70.7609 127.701 70.5 127.701 70.1346 127.649L68.7775 134.563L69.6648 134.721C70.1346 134.825 70.5 134.825 70.7087 134.668C70.9175 134.563 71.1263 134.302 71.2307 133.987C71.4395 133.621 71.5439 133.359 71.7005 133.254C71.8048 133.149 72.2224 133.149 72.901 133.306C73.3707 133.411 73.6317 133.463 73.7361 133.568C73.8405 133.673 73.8405 133.778 73.8405 133.987L73.0054 138.387C72.9532 138.597 72.901 138.702 72.7966 138.702C72.6922 138.754 72.379 138.702 71.857 138.597C71.2307 138.492 70.8653 138.335 70.7609 138.178C70.6043 138.021 70.5522 137.654 70.6044 137.078C70.6044 136.502 70.239 136.187 69.456 136.03L68.5165 135.873ZM86.785 135.664L87.829 143.05C87.8812 143.416 88.2465 143.626 88.9773 143.678C89.3426 143.678 89.5514 143.731 89.6558 143.835C89.7602 143.888 89.8124 144.097 89.8646 144.359C89.9168 144.831 89.9168 145.093 89.8124 145.197C89.708 145.302 89.4992 145.354 89.0817 145.407L80.8869 146.559C80.4172 146.612 80.104 146.612 79.9996 146.507C79.843 146.402 79.7386 146.14 79.6864 145.774C79.6342 145.512 79.6342 145.354 79.7386 145.25C79.7908 145.145 79.9996 145.04 80.2606 144.935C80.6781 144.726 80.9391 144.569 81.0435 144.464C81.1479 144.359 81.1479 144.202 81.1479 144.045L79.0601 129.325C79.0079 129.116 78.9557 128.958 78.7991 128.854C78.6425 128.749 78.3815 128.697 77.9118 128.592C77.5986 128.539 77.442 128.382 77.3898 128.068C77.3898 128.016 77.3898 127.858 77.3376 127.544C77.3376 127.177 77.6508 126.968 78.1205 126.916L89.2904 125.344C89.6036 125.292 89.8646 125.292 90.0212 125.344C90.1778 125.396 90.2822 125.554 90.3866 125.815C90.3866 125.868 90.4388 125.92 90.4909 126.025L91.6915 128.592C91.7436 128.749 91.7958 128.906 91.7958 129.011C91.848 129.273 91.5871 129.43 91.0129 129.535C90.23 129.639 89.7602 129.639 89.5514 129.43C89.3426 129.273 88.9773 128.801 88.4553 128.12C88.1421 127.701 87.829 127.387 87.568 127.282C87.307 127.177 86.8894 127.125 86.4197 127.177C86.2631 127.177 86.0021 127.23 85.6367 127.335L86.6285 134.302L87.568 134.197C88.0378 134.144 88.3509 133.987 88.5075 133.83C88.6641 133.673 88.7685 133.359 88.8207 132.992C88.8729 132.573 88.9251 132.259 89.0295 132.154C89.1339 131.997 89.4992 131.892 90.1778 131.787C90.6475 131.735 90.9607 131.735 91.0651 131.787C91.1695 131.84 91.2217 131.944 91.2739 132.154L91.9002 136.554C91.9524 136.764 91.9002 136.868 91.7958 136.921C91.6915 136.973 91.3783 137.078 90.9085 137.13C90.2822 137.235 89.9168 137.183 89.708 137.078C89.4992 136.973 89.3426 136.659 89.1861 136.135C89.0295 135.611 88.5597 135.402 87.7768 135.506L86.785 135.664ZM113.405 112.667L118.52 117.486L119.355 116.596C119.564 116.334 119.721 116.125 119.773 115.967C119.825 115.81 119.721 115.548 119.564 115.286C119.251 114.763 119.042 114.448 119.042 114.291C119.042 114.134 119.094 114.029 119.199 113.872C119.825 113.191 120.243 112.824 120.347 112.72C120.451 112.667 120.66 112.772 120.921 112.982L123.896 115.758C124.105 115.915 124.157 116.072 124.157 116.229C124.157 116.386 123.896 116.648 123.479 117.12C123.218 117.434 122.957 117.591 122.8 117.644C122.644 117.696 122.33 117.591 121.913 117.329C121.495 117.12 121.234 117.015 121.078 117.067C120.921 117.067 120.765 117.225 120.556 117.382L119.616 118.429L125.827 124.244L126.454 123.563C126.871 123.144 127.028 122.777 127.028 122.411C127.028 122.096 126.767 121.363 126.349 120.315C126.141 119.844 126.088 119.477 126.141 119.268C126.193 119.006 126.402 118.691 126.767 118.272C127.289 117.748 127.654 117.539 127.915 117.801C127.968 117.853 128.072 117.958 128.176 118.167L129.742 120.577C130.003 120.996 130.16 121.31 130.212 121.415C130.212 121.52 130.108 121.782 129.847 122.044L121.652 130.897C121.443 131.106 121.286 131.211 121.13 131.211C121.025 131.211 120.765 131.054 120.451 130.739C120.243 130.53 120.243 130.268 120.451 129.849C120.765 129.22 120.817 128.801 120.556 128.592L109.386 118.115C109.281 118.01 108.968 118.115 108.498 118.377C108.185 118.587 107.977 118.639 107.82 118.639C107.716 118.639 107.507 118.482 107.246 118.22C107.037 118.01 106.88 117.853 106.88 117.748C106.88 117.644 106.985 117.486 107.246 117.225L115.127 108.791C115.336 108.581 115.493 108.424 115.649 108.372C115.806 108.319 115.962 108.372 116.223 108.477L119.146 109.996C119.303 110.048 119.407 110.153 119.46 110.153C119.616 110.31 119.512 110.572 119.094 110.991C118.677 111.462 118.311 111.777 118.103 111.829C117.894 111.934 117.528 111.881 117.111 111.777C116.328 111.567 115.702 111.41 115.336 111.41C114.919 111.41 114.658 111.515 114.397 111.777L113.405 112.667ZM13.2934 56.1455L14.9114 50.8024C15.0158 50.4357 15.1202 50.2262 15.2246 50.1214C15.329 50.0167 15.5378 50.0167 15.851 50.1214C16.1641 50.2262 16.3207 50.331 16.4251 50.4357C16.5295 50.5405 16.5817 50.75 16.5817 51.0643C16.5817 51.3786 16.6339 51.5358 16.7383 51.6406C16.8427 51.7453 16.9993 51.8501 17.208 51.9025L30.518 55.9884C30.7268 56.0408 30.8833 56.0408 30.9877 56.0408C31.0921 55.9884 31.2487 55.8836 31.4053 55.6217C31.6663 55.3074 31.8751 55.1503 32.136 55.255C32.7102 55.4122 33.0234 55.5693 33.0756 55.6217C33.1278 55.6741 33.1278 55.8836 33.0234 56.1979L30.9877 62.9554C30.8833 63.2697 30.6746 63.3221 30.3092 63.2173C29.996 63.1125 29.7872 63.0601 29.6306 62.9554C29.4741 62.903 29.4219 62.6411 29.4219 62.2744C29.4219 61.8553 29.2653 61.5934 29.0043 61.541L19.5569 58.6599L26.3423 63.6887L25.8204 65.365L17.6256 65.7841L26.8121 68.6128C27.1253 68.7176 27.3862 68.6128 27.6472 68.2461C27.9604 67.8794 28.3258 67.7223 28.7433 67.827C29.2131 67.9842 29.3697 68.2461 29.2653 68.7176L28.2736 71.9653C28.1692 72.332 27.856 72.4368 27.4384 72.332C27.1253 72.2272 26.9165 72.0177 26.8643 71.651C26.8121 71.3891 26.7077 71.1796 26.6555 71.1272C26.6033 71.0224 26.4467 70.97 26.2379 70.9176L13.2934 66.9365C12.928 66.8317 12.667 66.7794 12.406 66.8317C12.1973 66.8841 11.9885 66.9889 11.7797 67.2508C11.5709 67.5127 11.4143 67.6175 11.2577 67.5651L10.788 67.408C10.4226 67.3032 10.2138 67.1984 10.1616 67.0937C10.1094 66.9889 10.1094 66.8841 10.1616 66.6746L11.8841 61.122L19.5569 60.86L13.2934 56.1455ZM35.1634 46.3498L32.8668 49.5452L33.6497 50.331C33.6497 50.331 33.7019 50.3834 33.7019 50.4357C33.8585 50.6453 33.9629 50.8024 34.1195 50.9072C34.3283 51.0643 34.6936 51.012 35.1112 50.75C35.3722 50.5929 35.5288 50.5405 35.6332 50.5405C35.7376 50.5405 35.9463 50.6453 36.1029 50.8024C36.3639 51.012 36.5205 51.1167 36.5205 51.2215C36.5727 51.3263 36.5205 51.431 36.4161 51.5358L33.9629 54.8883C33.8063 55.0979 33.5975 55.0455 33.3365 54.8359C32.9712 54.574 32.8146 54.2074 32.8146 53.7883C32.8146 53.3692 32.7102 53.0549 32.5536 52.8454L23.1062 42.3687C22.9496 42.2116 22.8452 42.0544 22.6886 42.002C22.4798 41.8449 22.1667 41.8973 21.7491 42.1592C21.5403 42.2639 21.3315 42.2639 21.0705 42.0544C20.7052 41.7925 20.5486 41.6353 20.4964 41.5306C20.4442 41.4258 20.4964 41.2687 20.653 41.0067L24.1501 36.1351C24.3589 35.8208 24.6199 35.716 24.933 35.716C25.2462 35.7684 25.7682 35.9779 26.5511 36.3446C26.8643 36.5018 27.1774 36.6589 27.4906 36.7637L39.3913 42.2639C39.9654 42.5259 40.5396 42.5782 41.1137 42.3687C41.2703 42.3163 41.3747 42.2639 41.4269 42.2639C41.4791 42.2639 41.6357 42.3163 41.8445 42.4735C42.1576 42.7354 42.3664 42.8925 42.3664 42.9973C42.4186 43.1021 42.3664 43.2592 42.2098 43.4688L38.1908 49.0738C38.0864 49.2309 37.8776 49.2309 37.6688 49.0738C37.3556 48.8642 37.199 48.7071 37.1468 48.6023C37.0947 48.4976 37.0947 48.3404 37.1468 48.0261C37.199 47.607 37.1468 47.3451 36.9381 47.188C36.6771 47.0308 36.1029 46.7689 35.1634 46.3498ZM25.6116 41.6877L31.9273 48.4976L33.9629 45.7212L25.6116 41.6877ZM44.4543 31.1587L47.6904 35.9779C47.847 36.1875 47.9514 36.3446 48.0558 36.397C48.1602 36.4494 48.3167 36.4494 48.5255 36.397C48.8387 36.3446 49.0997 36.4494 49.2563 36.7113C49.5172 37.078 49.6216 37.3399 49.5694 37.497C49.5173 37.6542 49.4129 37.8113 49.1519 37.9685L43.6713 41.6877C43.3581 41.8973 43.0972 41.8449 42.8362 41.4782C42.6274 41.1639 42.4708 40.9543 42.4708 40.7972C42.4186 40.6924 42.4708 40.5353 42.5752 40.4305C42.9406 39.9591 42.9928 39.54 42.7318 39.1209L35.1112 27.8061C34.8502 27.3871 34.4327 27.2823 33.9629 27.4394C33.7019 27.5442 33.5453 27.5442 33.4931 27.5442C33.3887 27.5442 33.2844 27.3871 33.1278 27.1251C32.7624 26.6013 32.8146 26.2346 33.18 25.9727L40.383 21.101C41.7923 20.1581 43.3581 19.6867 45.0284 19.7391C46.6987 19.7915 48.0036 20.4724 48.8909 21.8344C50.1958 23.7726 49.726 25.9203 47.4816 28.2776C50.1436 27.0728 52.127 27.3871 53.3797 29.2729L54.9456 31.5777C55.05 31.7873 55.2588 31.8396 55.5198 31.7873C55.8329 31.7349 56.0939 31.8396 56.2505 32.1016C56.5115 32.4682 56.6159 32.7302 56.6159 32.8349C56.6159 32.9397 56.4593 33.0968 56.1983 33.254L52.7012 35.6112C52.2836 35.8732 51.8139 35.9255 51.3441 35.7684C50.8221 35.6112 50.4046 35.2446 50.0392 34.7207L47.3772 30.792C46.8553 30.0062 46.0723 30.0062 45.0284 30.6872L44.4543 31.1587ZM39.2869 23.4583L43.7235 30.0062L44.5586 29.43C45.3938 28.8538 45.3938 27.9109 44.5586 26.6013L42.4708 23.4583C42.1054 22.9345 41.6879 22.6202 41.2703 22.5678C40.8527 22.5154 40.3308 22.7249 39.7566 23.0916L39.2869 23.4583ZM57.19 14.5531L56.5115 14.7627C56.3027 14.815 56.1461 14.9722 56.0417 15.2341C55.9373 15.496 55.9895 16.1246 56.0939 17.1723C56.1461 17.6437 56.0939 17.9057 55.9895 18.0628C55.8851 18.22 55.572 18.3771 55.1544 18.4819C54.7368 18.5866 54.4237 18.639 54.2671 18.5866C54.1105 18.5343 54.0061 18.3771 53.9539 18.1676C53.9017 18.0104 53.9017 17.9057 53.8495 17.7485L53.2753 15.077C53.2232 14.7627 53.2232 14.5531 53.3275 14.396C53.4319 14.2912 53.6929 14.1341 54.1627 13.9769L65.2282 10.7815C65.5414 10.6768 65.7501 10.6768 65.8545 10.7291C65.9589 10.7815 66.0633 10.9911 66.2199 11.3577L67.1594 13.6102C67.2116 13.7674 67.316 13.9769 67.3682 14.1341C67.4204 14.3436 67.4204 14.5531 67.4204 14.7103C67.3682 14.8674 67.1594 14.9722 66.7419 15.077C66.2199 15.2341 65.9067 15.2865 65.6979 15.2341C65.5414 15.1817 65.3326 14.9722 65.1238 14.6055C64.7584 13.9769 64.4452 13.5055 64.1321 13.1388C63.8189 12.7721 63.5057 12.6149 63.2447 12.7197L62.775 12.8245L66.8985 27.3347C67.0028 27.7537 67.316 27.9633 67.8902 27.9633C68.0989 27.9633 68.2555 28.0157 68.3599 28.068C68.4643 28.1204 68.5165 28.33 68.6209 28.6443C68.7253 29.0109 68.7253 29.2729 68.6731 29.3776C68.6209 29.4824 68.4121 29.5348 68.099 29.6395L61.4701 31.5253C61.2091 31.5777 61.0525 31.6301 60.9481 31.5777C60.8437 31.5253 60.7393 31.3158 60.635 30.9491C60.5306 30.5301 60.5828 30.2158 60.8959 30.0586C61.1569 29.9015 61.3135 29.7443 61.4179 29.6395C61.4701 29.5348 61.4701 29.3776 61.4179 29.1681L57.19 14.5531ZM72.4312 11.2006V10.572C72.4312 10.3101 72.5878 10.2053 72.9532 10.2053H80.4694C80.7303 10.2053 80.9391 10.2577 80.9913 10.3101C81.0957 10.3625 81.0957 10.5196 81.0957 10.7815C81.0957 11.2006 81.0435 11.4625 80.9913 11.5673C80.9391 11.672 80.7825 11.7244 80.6259 11.7768C79.9996 11.8816 79.6342 12.1959 79.6342 12.7197V26.8632C79.6342 27.1775 79.8952 27.3871 80.365 27.5442C80.6781 27.649 80.8347 27.7537 80.9391 27.8585C80.9913 27.9633 81.0435 28.1204 81.0435 28.33V28.8014C81.0435 29.0633 80.9913 29.1681 80.9391 29.2205C80.8869 29.2729 80.7303 29.2729 80.4694 29.2729H72.7966C72.4834 29.2729 72.379 29.1681 72.379 29.0109C72.379 28.4347 72.4312 28.1204 72.4834 27.9633C72.5356 27.8585 72.7444 27.7537 73.0054 27.649C73.5795 27.5442 73.8405 27.3347 73.8405 26.968V12.9816C73.8405 12.6673 73.7883 12.4054 73.6839 12.2483C73.5795 12.0911 73.3707 11.934 73.0054 11.8292C72.7444 11.7244 72.5878 11.672 72.5356 11.6197C72.4312 11.5149 72.4312 11.3577 72.4312 11.2006ZM88.1421 19.32L86.4197 27.4394C86.3675 27.7537 86.5763 28.068 87.046 28.3823C87.4636 28.6443 87.6202 28.8538 87.568 29.1157C87.4636 29.6919 87.3592 30.0062 87.307 30.0586C87.2548 30.111 87.0982 30.111 86.8372 30.0586L82.766 29.1681C82.5572 29.1157 82.4528 29.0633 82.4006 28.9062C82.3484 28.749 82.4006 28.4871 82.505 28.0157C82.5572 27.8061 82.7138 27.7014 83.0269 27.649C83.6011 27.5966 83.9143 27.4394 83.9665 27.2299L86.8372 13.6626C86.8894 13.3483 86.9416 13.0864 86.8894 12.8769C86.8372 12.7197 86.6806 12.5102 86.4197 12.353C86.1587 12.1959 86.0543 12.0911 85.9499 11.934C85.8977 11.8292 85.8977 11.6197 85.9499 11.3054C86.0543 10.7815 86.3153 10.5196 86.6806 10.6244L90.9607 11.5149L94.1969 21.5725L95.6061 14.9722C95.6583 14.6055 95.5017 14.2912 95.032 14.0293C94.771 13.8721 94.6144 13.715 94.51 13.5578C94.4578 13.4007 94.4578 13.1388 94.5622 12.7721C94.6144 12.5626 94.6666 12.4054 94.7188 12.353C94.771 12.3006 94.9276 12.3006 95.0842 12.353L99.312 13.2435C99.5208 13.2959 99.6252 13.6102 99.5208 14.0817C99.4686 14.3436 99.4164 14.5531 99.312 14.6055C99.2598 14.6579 99.1554 14.7103 98.9467 14.7103C98.5813 14.7627 98.3203 14.815 98.2159 14.8674C98.1115 14.9722 98.0071 15.077 98.0071 15.2341L94.5622 31.6825L91.9524 31.1063L88.1421 19.32ZM113.457 20.0534C114.762 20.8391 115.702 21.8868 116.276 23.0916C116.85 24.3488 117.059 25.7632 116.954 27.3347C116.85 28.9062 116.171 30.6872 115.075 32.573C113.718 34.8779 111.943 36.4494 109.803 37.3399C107.663 38.2304 105.523 37.9685 103.331 36.6589C101.295 35.4017 100.147 33.6731 99.8862 31.4206C99.6252 29.1681 100.252 26.8108 101.713 24.3488C103.227 21.8344 105.054 20.1581 107.194 19.3724C109.281 18.5866 111.369 18.7962 113.457 20.0534ZM113.092 23.0916C113.614 22.2535 113.509 21.6249 112.779 21.1534C112.465 20.9963 112.152 20.9439 111.787 20.9963C111.421 21.101 111.213 21.2582 111.004 21.5725L103.696 33.7254C103.436 34.1445 103.383 34.5112 103.436 34.8255C103.54 35.1922 103.696 35.4017 104.01 35.6112C104.323 35.8208 104.688 35.8732 105.001 35.716C105.367 35.6112 105.628 35.4017 105.784 35.0874L113.092 23.0916ZM122.487 44.3069L131.099 40.6401C131.151 40.5877 131.256 40.5877 131.308 40.5353C131.569 40.3257 131.569 39.9591 131.412 39.4352C131.308 39.0686 131.308 38.9114 131.36 38.8066C131.412 38.7542 131.465 38.7542 131.517 38.7019L131.673 38.5971C131.934 38.3876 132.143 38.2828 132.248 38.2304C132.352 38.2304 132.456 38.2828 132.613 38.4399L135.014 41.5306C135.118 41.6877 135.171 41.7925 135.118 41.8449C135.066 41.8973 134.962 42.0544 134.701 42.2639C134.388 42.4735 134.231 42.6306 134.127 42.683C134.022 42.7354 133.97 42.683 133.813 42.6306C133.5 42.4735 133.292 42.4211 133.135 42.4211C132.978 42.4211 132.717 42.5259 132.248 42.683L117.737 48.8642L116.85 49.2309C116.745 49.2833 116.693 49.2309 116.537 49.0738L114.605 46.5594C114.501 46.4546 114.501 46.3498 114.501 46.2451C114.553 46.1403 114.71 45.8784 115.023 45.4593L124.784 32.6254C125.045 32.3111 125.097 31.9444 124.992 31.5253C124.94 31.3158 124.94 31.1587 124.94 31.1063C124.94 31.0539 125.045 30.9491 125.149 30.8444C125.201 30.792 125.253 30.792 125.306 30.7396C125.358 30.6872 125.462 30.6348 125.514 30.5824C125.567 30.5301 125.619 30.5301 125.619 30.4777L125.723 30.3729C125.932 30.2158 126.088 30.2158 126.245 30.4253L130.63 36.0827C130.786 36.2922 130.734 36.4494 130.473 36.6589C130.473 36.6589 130.264 36.8161 129.899 37.0256C129.794 37.078 129.69 37.0256 129.481 36.9208C129.064 36.6589 128.698 36.6589 128.437 36.8684C128.385 36.9208 128.281 36.9732 128.229 37.078L122.487 44.3069ZM136.319 47.9213C136.736 47.7118 137.206 47.7642 137.728 48.0261C138.25 48.288 138.615 48.7595 138.929 49.3881C139.294 50.1738 139.346 50.9596 139.033 51.6929C138.72 52.4263 138.25 53.0025 137.624 53.2645C136.684 53.7359 135.484 53.6835 134.074 53.2645C132.665 52.793 131.882 52.4263 131.726 52.0596C131.673 51.9549 131.673 51.7453 131.726 51.3786V51.2215C131.726 50.9072 131.778 50.75 131.83 50.6977C131.882 50.6977 132.091 50.75 132.509 50.8548C133.605 51.2215 134.335 51.2739 134.805 51.0643C135.118 50.9072 135.327 50.5405 135.327 49.9643C135.327 49.3881 135.432 48.969 135.588 48.6023C135.745 48.288 136.006 48.0785 136.319 47.9213ZM143.157 64.8412C143.209 64.8936 143.417 64.9983 143.783 65.2602C144.044 65.4174 144.2 65.6269 144.253 65.9412C144.253 65.9936 144.305 66.3079 144.409 66.8317C144.357 66.9365 144.2 67.0937 143.992 67.1984L140.338 68.9795C140.129 69.0842 140.025 69.1366 139.973 69.1366C139.816 69.189 139.712 69.1366 139.659 69.0319C139.607 68.9271 139.503 68.6652 139.398 68.1937C139.294 67.6699 139.242 67.3032 139.294 67.146C139.346 66.9889 139.712 66.5698 140.286 65.9412C141.591 64.684 142.165 63.6364 141.956 62.9554C141.852 62.4315 141.486 62.2744 140.964 62.3792C140.286 62.5363 139.19 63.6364 137.676 65.6793C135.901 67.9842 134.544 69.5557 133.709 70.3414C132.822 71.1272 131.778 71.651 130.577 71.9653C129.116 72.332 127.863 72.1225 126.871 71.3891C125.88 70.6557 125.201 69.7128 124.94 68.5604C124.731 67.827 124.731 67.0937 124.888 66.3079C124.94 65.9936 124.94 65.7841 124.888 65.6269C124.836 65.5222 124.784 65.4174 124.575 65.365C124.262 65.2602 124.001 64.8936 123.844 64.265C123.792 64.003 123.792 63.8459 123.792 63.7411C123.844 63.6364 123.948 63.5316 124.209 63.4268L127.811 61.6982C128.281 61.4886 128.489 61.3839 128.542 61.3315C128.75 61.2791 128.959 61.541 129.064 62.0649C129.22 62.7982 129.272 63.2697 129.168 63.4268C129.064 63.584 128.75 63.8459 128.333 64.2126C126.715 65.5745 126.036 66.727 126.245 67.6175C126.349 67.9318 126.506 68.1937 126.715 68.3509C126.924 68.508 127.185 68.5604 127.498 68.508C127.968 68.4033 128.489 68.0366 129.011 67.408C129.533 66.7794 130.16 66.046 130.786 65.1555C132.3 63.0601 133.552 61.541 134.544 60.5981C135.536 59.6552 136.632 59.0266 137.833 58.7123C139.19 58.398 140.338 58.5028 141.382 59.079C142.374 59.6552 143.052 60.5457 143.313 61.6982C143.417 62.5363 143.417 63.584 143.157 64.8412Z" fill="#260A00"/>
</svg>
