<svg width="12" height="24" viewBox="0 0 12 24" fill="none" xmlns="http://www.w3.org/2000/svg">
<path d="M5.87612 0C3.69156 0 1.91431 1.77726 1.91431 3.96181C1.91431 6.14636 3.69156 7.92357 5.87612 7.92357C8.06067 7.92357 9.83793 6.14631 9.83793 3.96181C9.83793 1.77731 8.06067 0 5.87612 0Z" fill="#D5B584"/>
<path d="M11.6215 10.1194C11.4796 9.90922 11.2425 9.7832 10.989 9.7832H0.763288C0.509701 9.7832 0.272627 9.90917 0.130692 10.1194C-0.0112431 10.3295 -0.0394805 10.5964 0.0553591 10.8317L5.16817 23.5219C5.28456 23.8108 5.56469 24 5.87609 24C6.1875 24 6.46768 23.8108 6.58402 23.5219L11.6968 10.8316C11.7916 10.5964 11.7634 10.3295 11.6215 10.1194Z" fill="#D5B584"/>
</svg>
