<svg width="38" height="36" viewBox="0 0 38 36" fill="none" xmlns="http://www.w3.org/2000/svg">
<path d="M35.5383 19.2387V33.6475H7.89689V19.2387H35.5383ZM37.8908 16.8862H5.54443V36H37.8908V16.8862Z" fill="#D5B584"/>
<path d="M29.0688 16.8862L32.3799 20.1973C32.3549 20.3194 32.3064 20.4326 32.3064 20.562C32.3064 21.6161 33.1607 22.4689 34.2149 22.4689C34.3442 22.4689 34.456 22.4204 34.578 22.3969L37.8906 25.708V16.8862H29.0688Z" fill="#D5B584"/>
<path d="M31.2746 28.3515C32.3286 28.3515 33.1831 27.4971 33.1831 26.4431C33.1831 25.3891 32.3286 24.5347 31.2746 24.5347C30.2206 24.5347 29.3662 25.3891 29.3662 26.4431C29.3662 27.4971 30.2206 28.3515 31.2746 28.3515Z" fill="#D5B584"/>
<path d="M21.7182 31.4627C24.9061 31.4627 27.4905 29.2153 27.4905 26.4431C27.4905 23.6709 24.9061 21.4236 21.7182 21.4236C18.5302 21.4236 15.9458 23.6709 15.9458 26.4431C15.9458 29.2153 18.5302 31.4627 21.7182 31.4627Z" fill="#D5B584"/>
<path d="M12.1609 28.3501C13.2141 28.3501 14.0678 27.4963 14.0678 26.4431C14.0678 25.3899 13.2141 24.5361 12.1609 24.5361C11.1077 24.5361 10.2539 25.3899 10.2539 26.4431C10.2539 27.4963 11.1077 28.3501 12.1609 28.3501Z" fill="#D5B584"/>
<path d="M5.54443 25.708L8.85552 22.3969C8.97756 22.4219 9.09077 22.4704 9.22015 22.4704C10.2743 22.4704 11.1271 21.6161 11.1271 20.562C11.1271 20.4326 11.0786 20.3208 11.0536 20.1988L14.3662 16.8862H5.54443V25.708Z" fill="#D5B584"/>
<path d="M11.1286 32.3243C11.1286 31.2701 10.2743 30.4173 9.22015 30.4173C9.09077 30.4173 8.97903 30.4658 8.85699 30.4893L5.54443 27.1783V36H14.3662L11.0551 32.6889C11.0801 32.5669 11.1286 32.4522 11.1286 32.3243Z" fill="#D5B584"/>
<path d="M34.2149 30.4158C33.1607 30.4158 32.3079 31.2701 32.3079 32.3243C32.3079 32.4536 32.3564 32.5654 32.3814 32.6874L29.0688 36H37.8906V27.1783L34.5795 30.4893C34.4575 30.4643 34.3442 30.4158 34.2149 30.4158Z" fill="#D5B584"/>
<path d="M27.1604 13.4664C28.2136 13.4664 29.0673 12.6126 29.0673 11.5594C29.0673 10.5062 28.2136 9.65244 27.1604 9.65244C26.1072 9.65244 25.2534 10.5062 25.2534 11.5594C25.2534 12.6126 26.1072 13.4664 27.1604 13.4664Z" fill="#D5B584"/>
<path d="M3.33902 16.8863C3.33902 15.6689 4.32706 14.6808 5.54446 14.6808H6.75009L6.80449 14.4926L23.826 5.171L25.1272 5.55034C25.164 5.66796 25.1772 5.79146 25.2404 5.90468C25.7462 6.83096 26.9048 7.16765 27.8311 6.66187C27.9428 6.60012 28.0193 6.50455 28.1119 6.42369L29.416 6.80596L32.3816 12.2196L32.0008 13.5222C31.8847 13.5575 31.7612 13.5708 31.6479 13.6325C31.2172 13.8678 30.9304 14.253 30.779 14.6808H36.4117L32.6095 7.73666H32.611L28.3721 0L20.6326 4.23737H20.634L7.73813 11.2992L0 15.5365L3.33902 21.6338V16.8863Z" fill="#D5B584"/>
<path d="M16.3655 11.7491C15.0849 12.4489 14.163 13.5105 13.6455 14.6808H24.2801C24.1948 14.2324 24.0669 13.7928 23.8405 13.3796C22.5069 10.9478 19.162 10.2185 16.3655 11.7491Z" fill="#D5B584"/>
</svg>
