<svg width="28" height="27" viewBox="0 0 28 27" fill="none" xmlns="http://www.w3.org/2000/svg">
<path d="M19.3392 16.9811H18.1197L17.6874 16.5643C19.2003 14.8045 20.1111 12.5197 20.1111 10.0343C20.1111 4.49228 15.6188 0 10.0768 0C4.53476 0 0.0424805 4.49228 0.0424805 10.0343C0.0424805 15.5763 4.53476 20.0686 10.0768 20.0686C12.5622 20.0686 14.8469 19.1578 16.6068 17.6449L17.0236 18.0772V19.2967L24.7423 27L27.0425 24.6998L19.3392 16.9811ZM10.0768 16.9811C6.23288 16.9811 3.12996 13.8782 3.12996 10.0343C3.12996 6.19039 6.23288 3.08748 10.0768 3.08748C13.9207 3.08748 17.0236 6.19039 17.0236 10.0343C17.0236 13.8782 13.9207 16.9811 10.0768 16.9811Z" fill="white"/>
</svg>
