<svg width="37" height="36" viewBox="0 0 37 36" fill="none" xmlns="http://www.w3.org/2000/svg">
<path d="M5.73075 7.11189C7.69465 7.11189 9.2867 5.51984 9.2867 3.55595C9.2867 1.59205 7.69465 0 5.73075 0C3.76686 0 2.1748 1.59205 2.1748 3.55595C2.1748 5.51984 3.76686 7.11189 5.73075 7.11189Z" fill="#D5B584"/>
<path d="M1.76328 19.5721H2.11594V26.6252C2.11594 27.5953 2.90941 28.3885 3.87922 28.3885H7.5821C8.55191 28.3885 9.34538 27.5953 9.34538 26.6252V26.2141C9.02211 25.5967 8.8164 24.8916 8.8164 24.1569V14.9291C8.8164 13.1364 9.90375 11.5789 11.4613 10.9029V10.1976C11.4613 9.22783 10.6678 8.43436 9.69804 8.43436H1.76328C0.793476 8.43436 0 9.22783 0 10.1976V17.8091C0 18.7789 0.764088 19.5721 1.76328 19.5721Z" fill="#D5B584"/>
<path d="M30.3577 7.11189C32.3216 7.11189 33.9137 5.51984 33.9137 3.55595C33.9137 1.59205 32.3216 0 30.3577 0C28.3938 0 26.8018 1.59205 26.8018 3.55595C26.8018 5.51984 28.3938 7.11189 30.3577 7.11189Z" fill="#D5B584"/>
<path d="M24.5977 10.1682V10.8736C26.1555 11.5495 27.2426 13.107 27.2426 14.8997V24.0982C27.2426 24.8329 27.0662 25.5382 26.7139 26.1553V26.5667C26.7139 27.5366 27.5071 28.33 28.4772 28.33H32.1801C33.1499 28.33 33.9433 27.5366 33.9433 26.5667V19.5136H34.2957C35.2658 19.5136 36.059 18.7202 36.059 17.7504V10.1682C36.059 9.19844 35.2658 8.40497 34.2957 8.40497H26.3609C25.3914 8.40497 24.5977 9.19815 24.5977 10.1682Z" fill="#D5B584"/>
<path d="M11.4902 14.9288V17.8088V24.1566C11.4902 25.1265 12.2837 25.9199 13.2535 25.9199H13.9294V34.2367C13.9294 35.2065 14.7229 36 15.6927 36H20.4242C21.394 36 22.1875 35.2065 22.1875 34.2367V25.8905H22.8634C23.8332 25.8905 24.6267 25.0974 24.6267 24.1273V17.8091V14.9291C24.6267 13.9593 23.8332 13.1658 22.8634 13.1658H13.2535C12.2543 13.1655 11.4902 13.9593 11.4902 14.9288Z" fill="#D5B584"/>
<path d="M18.0439 11.6964C20.3 11.6964 22.1288 9.86753 22.1288 7.61148C22.1288 5.35544 20.3 3.52655 18.0439 3.52655C15.7879 3.52655 13.959 5.35544 13.959 7.61148C13.959 9.86753 15.7879 11.6964 18.0439 11.6964Z" fill="#D5B584"/>
</svg>
