<svg width="12" height="24" viewBox="0 0 12 24" fill="none" xmlns="http://www.w3.org/2000/svg">
<path d="M5.87607 0C3.69151 0 1.91431 1.77726 1.91431 3.96181C1.91431 6.14636 3.69156 7.92357 5.87607 7.92357C8.06057 7.92357 9.83788 6.14631 9.83788 3.96181C9.83783 1.77731 8.06062 0 5.87607 0Z" fill="#D5B584"/>
<path d="M11.6968 22.9515L6.58399 10.2612C6.4676 9.97238 6.18747 9.7832 5.87606 9.7832C5.56465 9.7832 5.28452 9.97238 5.16813 10.2612L0.0553233 22.9515C-0.0394664 23.1868 -0.0112286 23.4537 0.130657 23.6639C0.272592 23.874 0.509615 24 0.763253 24H10.9889C11.2425 24 11.4795 23.874 11.6215 23.6639C11.7634 23.4537 11.7916 23.1868 11.6968 22.9515Z" fill="#D5B584"/>
</svg>
